<svg xmlns="http://www.w3.org/2000/svg" height="250.01" viewBox="0 0 249.99999 250.00891" width="250"><g transform="matrix(1.4828 0 0 1.4828 .90256 1.0975)"><path stroke-linejoin="round" d="m83.63 0.5c-45.91 0-83.13 37.22-83.13 83.131 0 45.906 37.22 83.131 83.13 83.131s83.126-37.225 83.126-83.131c0-45.911-37.22-83.131-83.13-83.131z" stroke="#c5af7d" stroke-linecap="round" fill="#fff"/><path fill="#002e5d" d="m87.085 4.47c-43.702-1.907-80.686 31.973-82.593 75.683-1.903 43.702 31.978 80.683 75.681 82.583 43.705 1.912 80.685-31.973 82.592-75.674 1.91-43.705-31.97-80.684-75.675-82.592z"/><path fill="#fff" d="m78.648 12.17c-0.113-0.038-0.07849 0.35938-0.02148 0.35938 0.645 0.081 1.8351 0.96533 1.8301 1.6113l-0.03516 4.8828c-0.013 1.615-0.20594 2.0303-1.4609 2.1543-0.056-0.001-0.09891 0.37933-0.0039 0.36133 0.609-0.072 1.2187-0.06655 2.0547-0.06055 0.589 0.005 1.1021 0.02689 1.5391 0.08789 0.114 0.038 0.07902-0.36133 0.04102-0.36133-1.31-0.124-1.4407-0.65773-1.4297-2.1777l0.03516-4.5781 7.0332 7.2539c0.113 0.115 0.3418 0.04137 0.3418-0.01563-0.071-0.609-0.07922-1.9005-0.07422-2.6035l0.0293-4.2949c0.012-1.52 0.12994-2.0888 1.4609-2.1738 0.038 0 0.13531-0.37738-0.05469-0.35938-0.418 0.054-1.0649 0.08703-1.6719 0.08203-0.837-0.006-1.3119-0.0094-1.8809-0.10938-0.113-0.038-0.11648 0.34133-0.02148 0.36133 1.233 0.142 1.4212 0.56131 1.4082 2.1953l-0.0332 4.4277-6.5801-6.9102c-0.817-0.006-1.9179-0.03281-2.5059-0.13281zm-3.1875 0.31445c-0.418 0.14-1.0294 0.27862-1.6074 0.39062-0.821 0.159-1.2468 0.26125-1.8438 0.28125-0.119-0.016-0.05012 0.33789 0.04687 0.33789 1.241-0.087 1.5005 0.15381 1.8125 1.7578l0.64648 3.3203c0.373 1.921-0.41873 3.1193-2.3027 3.4863-1.437 0.279-3.0428-0.4137-3.4668-2.5957l-0.57617-2.9668c-0.326-1.679-0.28802-2.0736 0.95898-2.4316 0.093-0.018 0.02002-0.39103-0.08398-0.33203-0.437 0.143-1.3659 0.34298-1.9629 0.45898-0.839 0.163-1.7302 0.356-2.3262 0.375-0.12-0.015-0.01108 0.34889 0.04492 0.33789 1.241-0.087 1.4929 0.11667 1.8379 1.8887l0.63867 3.2832c0.435 2.238 2.5469 3.2413 4.7109 2.8203 2.5-0.485 3.6239-2.3695 3.2539-4.2715l-0.68164-3.5059c-0.294-1.511-0.26109-1.9427 1.0039-2.3047 0.037-0.008 0.04248-0.37708-0.10352-0.33008zm21.805 0.93164c-2.6717-0.0071-4.7955 1.8052-5.2383 4.0391-0.479 2.423 1.066 4.9762 4.291 5.6152 1.399 0.277 2.5765 0.10236 3.9356-0.30664-0.146-0.242-0.10249-0.56075-0.0215-0.96875 0.352-1.77 0.38483-1.9398 1.6738-1.8008 0.056 0.012 0.16783-0.35289 0.0488-0.33789-0.439-0.029-1.2814-0.17702-1.8594-0.29102-0.82-0.163-1.8564-0.40803-2.4414-0.58203-0.108-0.041-0.12631 0.34447-0.07031 0.35547 1.469 0.407 1.5102 0.49125 1.1562 2.2812-0.064 0.316-0.18648 0.73895-0.27148 0.87695-0.115 0.19-0.40928 0.49894-1.8633 0.21094-2.013-0.399-3.5102-2.2247-2.9082-5.2637 0.498-2.516 2.1874-3.6152 4.2754-3.2012 1.92 0.38 2.8432 1.9758 2.6992 3.0898-0.007 0.038 0.33842 0.14574 0.35742 0.05273 0.248-0.861 0.35376-2.0803 0.25976-2.1953-0.199-0.272-1.5266-1.195-2.8496-1.457-0.40075-0.07938-0.79216-0.11617-1.1738-0.11719zm-38.289 3.3828c-0.66878 0.000906-1.3594 0.1288-2.0371 0.4043-2.887 1.173-4.103 4.2931-3.123 6.7051 0.937 2.306 3.8597 3.5393 6.5527 2.4453 2.905-1.18 4.1019-4.2915 3.1289-6.6855-0.70275-1.7295-2.5151-2.8719-4.5215-2.8691zm51.529 0.4082c-0.085-0.084-0.21897 0.27383-0.16797 0.29883 1.04 0.684 1.1174 0.99724 0.31641 2.6152l-1.4824 2.998c-1.012 2.044 0.0572 4.1216 2.0332 5.0996 2.282 1.13 4.3197 0.31317 5.1797-1.4238l1.584-3.2012c0.682-1.38 0.96931-1.7056 2.1953-1.2266 0.034 0.017 0.26219-0.27227 0.11719-0.32227-0.417-0.143-0.98762-0.40306-1.5156-0.66406-0.749-0.371-1.1498-0.54853-1.6348-0.89453-0.085-0.085-0.24397 0.23688-0.16797 0.29688 1.04 0.684 1.1 1.033 0.375 2.498l-1.5 3.0312c-0.868 1.754-2.2243 2.226-3.9453 1.375-1.312-0.648-2.1666-2.173-1.1816-4.166l1.3398-2.709c0.758-1.533 1.0283-1.8226 2.2363-1.3516 0.085 0.042 0.25572-0.29845 0.13672-0.31445-0.434-0.151-1.2948-0.55617-1.8398-0.82617-0.766-0.379-1.5921-0.76728-2.0781-1.1133zm-52.213 0.418c1.4972 0.05095 3.1163 1.0262 3.9961 3.1914 0.959 2.359 0.05783 4.0788-1.8262 4.8438-1.761 0.715-4.2176-0.02902-5.3906-2.916-0.965-2.377-0.08908-4.108 1.7949-4.873 0.44-0.179 0.9267-0.26308 1.4258-0.24609zm-8.5625 2.9961c-0.338 0.283-0.64816 0.50403-1.1602 0.83203-0.704 0.45-1.2169 0.7802-1.7539 1.0332-0.148 0.05 0.13169 0.34545 0.17969 0.31445 1.048-0.513 1.1748-0.52648 1.0508 1.8535l-0.09961 1.957-1.3906-0.62109c-2.206-0.98-2.5984-1.1349-1.6094-1.8809 0.048-0.031-0.13594-0.38597-0.21094-0.29297-0.337 0.284-1.111 0.80091-1.623 1.1289-0.704 0.451-1.3279 0.84928-1.8809 1.1133-0.117 0.029 0.14536 0.33569 0.19336 0.30469 1.07-0.55 1.5219-0.47773 3.7949 0.57227l2.1367 0.97852 1.0547 1.6484c1.136 1.777 0.9248 1.7988-0.0332 2.5918-0.048 0.031 0.12031 0.39769 0.19531 0.30469 0.471-0.391 1.239-0.88275 1.959-1.3438 0.512-0.327 1.3233-0.82348 1.7383-1.0215 0.116-0.029-0.12973-0.34445-0.17773-0.31445-1.15 0.601-1.2998 0.65208-2.3848-1.0449l-1.1777-1.8398 0.14844-2.5547c0.127-2.269 0.27077-2.6778 1.2598-3.4238 0.049-0.031-0.13298-0.38892-0.20898-0.29492zm73.223 3.1074c-0.0864 0.0548-0.19782 0.25109-0.16407 0.27734 0.464 0.456 0.87257 1.8806 0.47657 2.3906l-2.9942 3.8594c-0.99 1.276-1.3967 1.4882-2.4687 0.82422-0.045-0.035-0.30966 0.24216-0.22266 0.28516 0.527 0.313 1.008 0.68622 1.668 1.1992 0.465 0.361 0.85992 0.69091 1.1699 1.0039 0.067 0.1 0.28095-0.23872 0.25195-0.26172-0.965-0.893-0.7455-1.3947 0.1875-2.5957l2.8086-3.6191 1.1836 10.035c0.02 0.16 0.24625 0.24031 0.28125 0.19531 0.312-0.527 1.0895-1.5602 1.5215-2.1152l2.6309-3.3926c0.931-1.201 1.3725-1.5828 2.4805-0.8418 0.031 0.024 0.33874-0.21831 0.17774-0.32031-0.365-0.211-0.89991-0.57622-1.3789-0.94922-0.661-0.513-1.0367-0.80352-1.4297-1.2285-0.066-0.101-0.29932 0.19848-0.23633 0.27148 0.894 0.862 0.78911 1.3106-0.21289 2.6016l-2.7148 3.498-1.0332-9.4863c-0.645-0.501-1.5032-1.19-1.9102-1.627-0.0168-0.025-0.0435-0.02217-0.0723-0.0039zm-39.316 5.8418c-29.838 0-54.035 24.188-54.035 54.037 0 29.84 24.196 54.029 54.035 54.029 29.845 0 54.033-24.189 54.033-54.029 0-29.848-24.187-54.037-54.033-54.037zm-48.996 1.9004c-0.0305-0.01123-0.05661-0.008-0.06836 0.01953-0.383 0.574-1.328 1.6913-2.002 2.3633 0.442 0.648 0.81934 1.5678 1.2773 2.5098l2.1113 4.3457-7.6055-2.0879c-0.896 1.008-1.5532 1.7473-2.1172 2.2383-0.104 0.06 0.21786 0.26856 0.25586 0.22656 0.806-0.733 1.7601-0.74702 2.2441-0.29102l3.6699 3.3926c1.196 1.114 1.3668 1.5219 0.63281 2.5469-0.038 0.042 0.22448 0.35023 0.27148 0.24023 0.347-0.505 0.75192-0.96031 1.2949-1.5703 0.404-0.454 0.7588-0.82428 1.0918-1.1133 0.104-0.06-0.21981-0.29591-0.25781-0.25391-0.945 0.89-1.404 0.63466-2.541-0.40234l-3.5684-3.2793 7.8398 2.2207c0.082 0.022 0.23545-0.12189 0.18945-0.21289l-3.4453-7.3887 3.7852 3.2637c1.347 1.173 1.4185 1.4936 0.77148 2.3926-0.038 0.043 0.23425 0.33561 0.28125 0.22461 0.348-0.504 0.86555-1.0846 1.4355-1.7246 0.404-0.455 1.1384-1.2517 1.4844-1.5547 0.104-0.06-0.21981-0.29591-0.25781-0.25391-1.059 1.018-1.4021 0.88925-2.7051-0.21875l-3.2578-2.7988c-1.303-1.108-1.4957-1.4062-0.59766-2.6152 0.01875-0.02175-0.12139-0.18505-0.21289-0.21875zm99.639 1.75c-0.10008 0.03783-0.22188 0.21998-0.20313 0.24024 0.76 1.006 0.71058 1.3139-0.60742 2.5469l-3.1387 2.9336c-1.304 1.22-1.6124 1.2488-2.5664 0.42383-0.026-0.027-0.38395 0.17672-0.25195 0.26172 0.471 0.392 1.0937 1.0586 1.6777 1.6836 0.389 0.417 1.0496 1.1508 1.3066 1.5078 0.09 0.124 0.31602-0.19075 0.29102-0.21875-0.812-1.035-0.6393-1.3802 0.5957-2.5352l3.1367-2.9316c1.235-1.155 1.617-1.3325 2.582-0.43945 0.025 0.028 0.35433-0.17544 0.23633-0.27344-0.34-0.28-1.0426-0.97658-1.4316-1.3926-0.584-0.624-1.2061-1.2902-1.5391-1.7852-0.0225-0.031-0.0545-0.03409-0.0879-0.02148zm5.0059 5.3164c-0.0958 0.03103-0.25522 0.19327-0.23047 0.22852 0.573 0.99 0.36947 1.6632-0.51953 3.1152l-3.9277 6.3945c-0.061 0.113 0.10021 0.27872 0.15821 0.26172l7.4199-1.416c1.796-0.348 2.4472-0.17705 3.0352 0.50195 0.033 0.047 0.38216-0.15066 0.28516-0.22266-0.415-0.429-0.49052-0.53824-0.97852-1.2402-0.347-0.5-0.65442-1.0035-0.85742-1.3945-0.033-0.115-0.32692 0.16003-0.29492 0.20703 0.312 0.546 0.39195 0.85992 0.12695 1.0449-0.281 0.195-0.53201 0.30216-1.666 0.53516l-5.0234 0.99805 2.668-4.3809c0.521-0.849 0.88256-1.1957 1.1016-1.3477 0.312-0.217 0.54971 0.0583 0.97071 0.5293 0.069 0.067 0.3802-0.1487 0.2832-0.2207-0.404-0.414-1.0005-1.271-1.4785-1.957-0.337-0.484-0.79381-1.2082-1.0078-1.6152-0.008-0.02875-0.0325-0.03183-0.0644-0.02148zm-117.19 8.87c-0.118-0.024-0.19581 0.14947-0.13281 0.23047l4.377 6.1934c1.017 1.427 1.2108 2.1107 0.79883 2.9707-0.029 0.049 0.2715 0.28964 0.3125 0.18164 0.249-0.58 0.31556-0.69634 0.72656-1.4023 0.305-0.526 0.61772-1.026 0.88672-1.375 0.09-0.08-0.25474-0.27927-0.30274-0.19727-0.354 0.497-0.53545 0.80948-0.81445 0.64648-0.328-0.191-0.69823-0.64886-1.2402-1.3809l-0.65234-0.88477 1.5488-2.6602 1.041 0.21094c0.748 0.15 1.416 0.2507 1.793 0.4707 0.329 0.191 0.04611 0.48698-0.21289 1.084-0.029 0.05 0.2885 0.30159 0.3125 0.18359 0.24-0.564 0.75502-1.4522 1.166-2.1582 0.315-0.541 0.74248-1.2375 1.0215-1.6035 0.09-0.08-0.27373-0.24627-0.30273-0.19727-0.786 1.125-1.5293 1.0001-2.9883 0.78906l-7.3379-1.1016zm1.5566 1.6309 3.3535 0.58594-1.3281 2.2832-2.0254-2.8691zm122.8 0.36719c-0.10659 0.01861-0.29144 0.15436-0.27344 0.19336 0.488 1.368 0.34185 1.5852-1.2852 2.3672l-3.8711 1.8594c-1.627 0.782-1.8577 0.74558-2.6367-0.48242-0.024-0.052-0.37421 0.0513-0.32421 0.1543 0.529 0.927 1.2773 2.4851 1.9023 3.7871 0.461 0.959 0.77977 1.7983 1.0098 2.2773 0.107 0.223 0.20142 0.28294 0.48242 0.21094 0.298-0.038 1.2017-0.3032 1.5527-0.4082 0.051-0.025-0.11286-0.36738-0.13086-0.35938-0.93 0.215-1.2298 0.29422-2.1758-1.6758l-0.31836-0.66797c-0.28-0.582-0.16844-0.74125 1.4766-1.5312l1.6953-0.81445 0.41211 0.85742c0.658 1.37 0.65492 1.4965 0.0449 1.9375-0.016 0.008 0.17283 0.35841 0.17383 0.31641 0.12-0.058 0.58232-0.27952 0.73632-0.35352 0.291-0.14 0.83093-0.37897 1.0449-0.41797 0.094-0.024-0.0812-0.34122-0.11524-0.32422-0.615 0.126-0.69767 0.03956-1.3887-1.3984l-0.41016-0.85742 1.5742-0.75586c0.805-0.386 1.2934-0.5995 1.6094-0.6875l0.5332 1.1113c0.798 1.662 0.62342 1.999 0.10742 2.373-0.034 0.016 0.13983 0.33536 0.17383 0.31836 0.079-0.058 0.46261-0.22306 0.59961-0.28906 0.257-0.123 0.61764-0.2958 0.93164-0.3418-0.447-0.755-0.90952-1.6297-1.3535-2.5547-0.625-1.301-1.332-2.8164-1.707-3.8164-0.008-0.02775-0.0348-0.03355-0.0703-0.02734zm-128.22 5.287c-0.035 0.0032-0.05834 0.01687-0.05859 0.04687-0.09 0.432-0.41605 1.4861-0.62305 2.0781-0.269 0.771-0.55584 1.5375-0.83984 2.0625-0.049 0.083 0.34038 0.179 0.35938 0.125 0.471-1.003 0.80714-1.1075 2.4941-0.51953l1.7051 0.59375-1.6758 4.8086-1.7051-0.59375c-1.596-0.557-1.9227-0.83245-1.6367-1.9395 0.019-0.054-0.34566-0.21961-0.34766-0.09961-0.097 0.45-0.33516 1.2502-0.53516 1.8242-0.269 0.772-0.6203 1.7777-0.9043 2.3027-0.074 0.095 0.31498 0.19072 0.33398 0.13672 0.62-1.314 0.87898-1.3655 2.584-0.77148l4.0547 1.4141c1.705 0.595 1.8394 0.78312 1.5254 2.2031-0.018 0.054 0.3408 0.23914 0.3418 0.11914 0.128-0.599 0.47905-1.604 0.74805-2.375 0.2-0.574 0.49326-1.3556 0.69726-1.7676 0.074-0.095-0.31498-0.19267-0.33398-0.13867-0.465 1.046-0.89366 1.0588-2.4727 0.50781l-1.8301-0.63867 1.6777-4.8086 1.8301 0.63867c1.669 0.582 1.8503 0.86717 1.6133 1.9512-0.018 0.054 0.3288 0.21514 0.3418 0.11914 0.128-0.599 0.3912-1.354 0.6582-2.127 0.206-0.592 0.58716-1.6275 0.78516-2.0215 0.073-0.095-0.30494-0.22572-0.33594-0.13672-0.613 1.356-0.94164 1.3208-2.5566 0.75781l-4.0566-1.4141c-1.614-0.563-1.9288-0.75245-1.5488-2.1895 0.02325-0.0675-0.18406-0.158-0.28906-0.14844zm132.38 4.5c-0.1088 0.01359-0.27787 0.13319-0.23437 0.17969 0.096 0.189 0.16403 0.34814 0.20703 0.49414 0.189 0.637-0.0722 1.031-1.6582 1.5l-4.1172 1.2188c-1.731 0.512-2.0142 0.35794-2.4922-0.78906-0.017-0.054-0.4137 0.0045-0.3457 0.10352 0.245 0.561 0.51009 1.4539 0.74609 2.2559 0.173 0.583 0.42905 1.5181 0.49805 1.9531-0.003 0.12 0.36756-0.02898 0.35156-0.08398-0.258-1.272 0.0338-1.4955 1.6738-1.9805l1.5293-0.45312c0.031 0.17 0.0596 0.2602 0.14063 0.5332 0.08 0.273 0.25816 0.67628 0.41015 0.98828-1.972 1.237-3.5852 3.5569-2.7012 6.5449 0.033 0.109 0.36271-0.04656 0.34571-0.10156-0.469-1.585 1.5347-4.0599 3.1777-5.3379 0.773 0.94 1.8605 1.3325 2.7715 1.0625 1.458-0.432 1.853-1.9755 1.125-4.4355-0.44201-1.495-0.99561-3.094-1.3496-3.623-0.0128-0.026-0.0419-0.03383-0.0781-0.0293zm0.67383 3.1816c0.078 0.195 0.11187 0.24431 0.17187 0.44531 0.468 1.585 0.18039 2.6212-1.3496 3.0742-1.239 0.367-2.1418-0.13936-2.6758-1.9434-0.07-0.237-0.0838-0.35162-0.13281-0.51562l2.1856-0.64648c0.985-0.291 1.5248-0.41206 1.8008-0.41406zm-132.36 6.566c-0.03156 0.0073-0.05042 0.02323-0.04492 0.05273-0.004 0.441-0.10355 1.292-0.18555 1.875-0.115 0.828-0.29945 1.8757-0.43945 2.4707-0.035 0.11 0.34747 0.10678 0.35547 0.05078 0.323-1.49 0.40589-1.5372 2.2129-1.2852 0.32 0.044 0.74762 0.1427 0.89062 0.2207 0.196 0.104 0.52336 0.37966 0.31836 1.8477-0.283 2.033-2.0218 3.6331-5.0898 3.2051-2.54-0.355-3.7335-1.9799-3.4395-4.0879 0.27-1.939 1.8126-2.9511 2.9336-2.8711 0.037 0.005 0.12525-0.34833 0.03125-0.36133-0.874-0.198-2.097-0.23477-2.207-0.13477-0.26 0.213-1.105 1.5917-1.291 2.9277-0.452 3.237 1.6993 5.8197 4.2773 6.1797 2.446 0.342 4.9093-1.3475 5.3633-4.6035 0.198-1.411-0.0443-2.5762-0.5293-3.9102-0.233 0.16-0.55475 0.13322-0.96875 0.07422-1.788-0.25-1.9586-0.27336-1.8926-1.5684 0.006-0.042-0.20023-0.10388-0.29492-0.08203zm133.19 2.6367c-0.16575-0.01288-0.33176-0.007-0.49414 0.01563-2.578 0.358-2.0005 4.4992-4.3535 4.8262-0.90299 0.126-1.6021-0.48791-1.7441-1.5039-0.204-1.468 0.82038-2.3775 2.2344-2.6895 0.039-0.005 0.0296-0.34894-0.0645-0.33594-1.006 0.082-2.0673 0.17091-2.1133 0.25391-0.518 0.821-0.81968 1.6877-0.67968 2.7227 0.249 1.788 1.7519 2.8058 3.2949 2.5918 2.711-0.377 2.0887-4.434 4.3477-4.748 0.867-0.12 1.3907 0.47828 1.5137 1.3633 0.142 1.016-0.47824 1.7944-1.4902 2.1074-0.056 0.008-0.004 0.383 0.0527 0.375 0.959-0.134 1.7095-0.39163 1.7695-0.51563 0.214-0.529 0.38648-1.09 0.27148-1.918-0.21087-1.5146-1.3847-2.4547-2.5449-2.5449zm2.748 8.4805c-0.0926 0.0062-0.1875 0.03569-0.1875 0.05469-0.111 1.256-0.35516 1.4524-2.1602 1.4824l-4.293 0.07227c-1.785 0.031-2.0364-0.15425-2.1894-1.4062-0.001-0.038-0.40133-0.12756-0.36133 0.02344 0.087 0.607 0.10024 1.52 0.11524 2.375 0.01 0.57 0.008 1.5581-0.043 1.9961-0.017 0.152 0.36233 0.06825 0.36133 0.03125 0.092-1.314 0.45257-1.4525 2.1426-1.4805l4.293-0.07227c1.69-0.029 2.092 0.09625 2.209 1.4062 0.001 0.038 0.38232 0.10708 0.36133-0.04492-0.065-0.436-0.11891-1.4222-0.12891-1.9922-0.013-0.855-0.0303-1.7674 0.0547-2.3574 0.008-0.076-0.0812-0.09414-0.17383-0.08789zm-133.32 1.628c-0.0925 0.0053-0.1875 0.03373-0.1875 0.05273-0.106 1.311-0.4672 1.447-2.1582 1.457l-4.293 0.02344c-1.691 0.009-2.0904-0.12064-2.1934-1.4316 0-0.038-0.38133-0.11294-0.36133 0.03906 0.06 0.436 0.10247 1.4241 0.10547 1.9941 0.004 0.855 0.01192 1.7674-0.08008 2.3574-0.018 0.151 0.35938 0.07316 0.35938 0.03516 0.126-1.255 0.37274-1.4451 2.1777-1.4551l4.293-0.02539c1.786-0.009 2.0358 0.17959 2.1758 1.4336 0 0.039 0.39838 0.13052 0.35938-0.02148-0.079-0.607-0.08289-1.519-0.08789-2.373-0.003-0.571 0.01045-1.5591 0.06445-1.9961 0.009-0.076-0.08133-0.09509-0.17383-0.08984zm0.16211 5.2031c-0.10467-0.01434-0.29897 0.05686-0.29297 0.09961 0.243 1.636-2.0846 3.8068-3.8906 4.8438-0.635-1.039-1.6567-1.5775-2.5957-1.4375-1.504 0.223-2.1094 1.6974-1.7324 4.2344 0.229 1.541 0.55308 3.2014 0.83008 3.7754 0.036 0.11 0.37908-0.03742 0.33008-0.10742-0.069-0.202-0.11277-0.36758-0.13477-0.51758-0.098-0.657 0.21461-1.0129 1.8496-1.2559l4.248-0.63086c1.785-0.266 2.0444-0.07309 2.3574 1.1289 0.008 0.056 0.40947 0.05427 0.35547-0.05273-0.165-0.59-0.30083-1.5109-0.42383-2.3379-0.09-0.602-0.2127-1.5659-0.2207-2.0059 0.02-0.118-0.36933-0.02084-0.36133 0.03516 0.077 1.295-0.24064 1.4765-1.9316 1.7285l-1.5801 0.23438c-0.007-0.172-0.0205-0.26683-0.0625-0.54883-0.042-0.281-0.16162-0.70516-0.26562-1.0352 2.125-0.95 4.0439-3.0215 3.5859-6.1035-0.0043-0.02825-0.02956-0.04209-0.06445-0.04687zm131.54 0.8418c-0.055-0.026-0.0901 0.25598-0.0801 0.33398 0.637 0.271 0.98373 0.88884 0.80273 2.3398l-0.16406 1.3203-5.9785-0.74219c-1.773-0.22-1.9947-0.43822-1.9727-1.6992 0.007-0.056-0.37838-0.18139-0.35938-0.02539 0.003 0.594-0.11189 1.5171-0.21289 2.3281-0.074 0.603-0.21421 1.5613-0.32422 1.9883-0.037 0.149 0.34652 0.16052 0.35352 0.10352 0.276-1.306 0.64817-1.376 2.3262-1.168l5.9785 0.74219-0.1543 1.2441c-0.187 1.508-0.68131 1.945-1.3203 2-0.038-0.004-0.098 0.33284-0.041 0.33984 0.19 0.005 0.66172 0.0628 0.88672 0.0918 0.472 0.059 0.95605 0.15653 1.248 0.26953 0.071 0.047 0.13508-0.30898 0.0801-0.33398-0.457-0.172-0.44532-0.26616-0.19532-2.2852l0.50782-4.0918c0.253-2.036 0.27714-2.0709 0.74414-2.1289 0.058-0.012 0.0824-0.3538 0.0234-0.3418-0.311 0.038-0.59609 0.0034-0.74609-0.01563-0.396-0.049-1.1083-0.17553-1.4023-0.26953zm-137.26 4.115c1.0175 0.01817 1.6775 0.7017 1.9199 2.3301 0.036 0.244 0.03555 0.35834 0.06055 0.52734l-2.2559 0.33594c-1.015 0.15-1.5658 0.1942-1.8398 0.1582-0.049-0.204-0.07642-0.25784-0.10742-0.46484-0.243-1.634 0.18662-2.6195 1.7656-2.8535 0.15975-0.02375 0.31168-0.0358 0.45703-0.0332zm5.3027 7.6855c-0.19239 0.01449-0.38434 0.05203-0.57422 0.11328-1.176 0.379-1.7352 1.6767-1.3242 3.2617-0.64-0.932-1.7048-1.3856-2.4648-1.1406-1.356 0.437-1.6249 2.0802-1.1289 3.6172 0.146 0.452 0.4868 1.3205 0.5918 1.6465 0.257 0.796 0.46578 1.4475 0.55078 2.0195 0.022 0.19299 0.37347-0.0212 0.35547-0.0762-0.24-1.24-0.08128-1.4909 1.6367-2.0449l4.0859-1.3184c1.718-0.554 1.9939-0.44401 2.5059 0.70899 0.018 0.054 0.41389 0.0461 0.33789-0.12891-0.253-0.537-0.54002-1.4242-0.79102-2.2012-0.111-0.343-0.353-1.2814-0.5-1.7344-0.58188-1.8034-1.9345-2.8241-3.2812-2.7227zm122.42 0.06055c-0.0334 0-0.0554 0.01102-0.0547 0.04102-0.104 0.605-0.37014 1.4769-0.61914 2.2949-0.178 0.581-0.47121 1.4843-0.65821 1.9043-0.07 0.098 0.32285 0.17805 0.33985 0.12304 0.485-1.202 0.56518-1.337 2.4922-0.75l2.0918 0.63672 1.543 2.0391c1.376 1.809 1.5317 2.2129 1.2617 3.4219-0.016 0.055 0.35456 0.20789 0.35156 0.0879 0.072-0.435 0.1648-0.80472 0.3418-1.3867 0.244-0.8 0.42201-1.3818 0.66601-1.9238 0.081-0.134-0.32479-0.17804-0.34179-0.12304-0.465 1.07-0.55196 1.1635-2.002-0.72852l-1.1934-1.5547 1.4609-0.42969c2.314-0.686 2.7134-0.82328 2.4434 0.38672-0.016 0.054 0.35456 0.20789 0.35156 0.0879 0.072-0.435 0.32591-1.3321 0.50391-1.9141 0.243-0.799 0.45898-1.5084 0.70898-2.0684 0.069-0.097-0.3287-0.15752-0.3457-0.10352-0.458 1.112-0.84876 1.3494-3.2598 2.0254l-2.2617 0.64453-1.873-0.57031c-2.017-0.614-1.8702-0.76814-1.6562-1.9941 0.012-0.0405-0.19066-0.14648-0.29102-0.14648zm-121.32 1.269c0.77489 0.0355 1.303 0.59104 1.666 1.7168 0.327 1.013 0.008 1.0758-1.457 1.5488l-4.1406 1.3359c-0.994 0.32-1.4163 0.43647-1.8613 0.48047-0.064-0.199-0.10802-0.20572-0.16602-0.38672-0.373-1.157-0.11144-2.0192 1.2266-2.4512 0.976-0.316 1.6702-0.0815 2.2012 1.5644 0.018 0.055 0.43402-0.0798 0.41602-0.13281-0.817-1.852-0.06609-3.114 1.2539-3.541 0.31625-0.102 0.60303-0.14659 0.86133-0.13476zm2.2598 14.08-0.84375 3.1543 3.1543 0.84571 0.84375-3.1543-3.1543-0.8457zm118.02 0.23242-3.1562 0.83398 0.83203 3.1562 3.1582-0.83398-0.83398-3.1562zm-107.54 7.748c-0.09047 0.0351-0.20623 0.22751-0.17773 0.25976 0.732 1.029 0.67742 1.3361-0.64258 2.5391l-3.1738 2.8906c-1.334 1.216-1.6312 1.2306-2.5742 0.39258-0.038-0.042-0.39858 0.15518-0.26758 0.24218 0.465 0.398 1.0796 1.0734 1.6426 1.6914 0.409 0.449 1.0488 1.1781 1.3008 1.5391 0.048 0.11 0.3183-0.18651 0.2793-0.22851-0.786-1.031-0.6097-1.347 0.6543-2.498l3.1738-2.8926c0.787-0.716 1.0958-0.99798 1.4688-1.209 0.142 0.127 0.38756 0.34045 0.47656 0.43945 0.883 0.969 0.88926 1.9899-0.17774 2.9629-1.124 1.024-2.2361 0.93189-3.1191-0.0371-0.051-0.057-0.09023-0.099-0.11524-0.12695-0.039-0.042-0.29095 0.18847-0.25195 0.23047 0.026 0.029 0.07591 0.0836 0.12891 0.14062 1.498 1.644 3.3675 1.919 4.6035 0.79297 1.109-1.011 0.78614-2.747-0.50586-4.166-0.346-0.379-1.0532-1.0712-1.2832-1.3242-0.55-0.603-1.0112-1.1094-1.3652-1.6094-0.0185-0.0348-0.04406-0.041-0.07422-0.0293zm96.877 0.5957c-0.0329-0.0122-0.061-0.009-0.0742 0.0176-0.268 0.35-1.017 1.1605-1.459 1.6055-0.576 0.57901-1.1664 1.1451-1.6484 1.4961-0.081 0.054 0.23149 0.30858 0.27149 0.26758 0.858-0.702 1.2057-0.64963 2.4727 0.60937l1.2812 1.2715-3.5898 3.6133-1.2793-1.2715c-1.201-1.192-1.3766-1.581-0.64063-2.457 0.04-0.04-0.21553-0.34919-0.26953-0.24219-0.281 0.364-0.84249 0.98402-1.2715 1.416-0.577 0.58-1.3266 1.3336-1.8086 1.6856-0.108 0.054 0.20219 0.30757 0.24219 0.26758 1.126-0.91701 1.3821-0.85013 2.6621 0.42187l3.0449 3.0254c1.28 1.273 1.3218 1.5015 0.42578 2.6465-0.041 0.04 0.20186 0.36286 0.25586 0.25586 0.374-0.485 1.1242-1.2413 1.6992-1.8203 0.429-0.432 1.0325-1.01 1.3945-1.293 0.108-0.055-0.20119-0.30953-0.24219-0.26953-0.87 0.743-1.2613 0.56963-2.4473-0.60937l-1.375-1.3672 3.5898-3.6094 1.375 1.3652c1.254 1.245 1.2943 1.5801 0.61133 2.4551-0.04 0.041 0.20186 0.33686 0.25586 0.25586 0.375-0.484 0.93867-1.0508 1.5137-1.6328 0.441-0.444 1.2311-1.2124 1.5801-1.4824 0.108-0.054-0.17619-0.33458-0.24219-0.26758-1.14 0.957-1.4218 0.78313-2.6348-0.42187l-3.0469-3.0273c-1.213-1.206-1.4142-1.5145-0.45117-2.6465 0.0502-0.0503-0.0965-0.2212-0.19531-0.25781zm-90.494 6.5078c-0.102-0.056-0.25097 0.28574-0.16797 0.30273 0.188 0.1 0.33412 0.19016 0.45312 0.28516 0.521 0.412 0.53577 0.88464-0.49023 2.1816l-2.6641 3.3672c-1.12 1.416-1.4412 1.453-2.4922 0.79101-0.045-0.035-0.33566 0.24221-0.22266 0.28321 0.524 0.317 1.2542 0.89506 1.9102 1.4141 0.477 0.377 1.2242 0.99455 1.5312 1.3106 0.066 0.101 0.28328-0.23649 0.23828-0.27149-0.942-0.892-0.83248-1.243 0.22852-2.584l0.98828-1.252c0.122 0.121 0.19592 0.17942 0.41992 0.35742 0.224 0.177 0.60325 0.40231 0.90625 0.57031-0.899 2.147-0.8815 4.9713 1.5625 6.9043 0.089 0.071 0.26861-0.24721 0.22461-0.28321-1.297-1.025-1.0845-4.1994-0.47852-6.1914 1.173 0.323 2.287 0.0165 2.877-0.72852 0.943-1.191 0.37528-2.6805-1.6367-4.2715-1.221-0.967-2.5935-1.9576-3.1875-2.1856zm2.3027 2.2344c0.176 0.115 0.23148 0.13467 0.39648 0.26367 1.296 1.026 1.658 2.039 0.66797 3.291-0.802 1.013-1.8316 1.1201-3.3066-0.0469-0.194-0.154-0.27225-0.24071-0.40625-0.3457l1.416-1.7871c0.637-0.805 1.0074-1.214 1.2324-1.375zm74.957 2.7441c-0.0806 0.008-0.15833 0.0961-0.14258 0.17187l1.252 7.4785c0.296 1.726 0.17368 2.4284-0.57032 3.0234-0.048 0.032 0.11717 0.37883 0.20117 0.29883 0.47701-0.414 0.58668-0.48731 1.2637-0.94531 0.504-0.34 1.0025-0.65552 1.3965-0.85352 0.116-0.033-0.10755-0.36354-0.18555-0.31054-0.537 0.294-0.83462 0.49847-1.0156 0.23047-0.213-0.314-0.34953-0.88821-0.51953-1.7832l-0.20117-1.0801 2.5488-1.7246 0.84766 0.64257c0.609 0.46 1.1652 0.84113 1.4102 1.2031 0.213 0.315-0.17107 0.45976-0.66407 0.88476-0.047 0.031 0.13113 0.39483 0.20313 0.29883 0.462-0.403 1.3103-0.97659 1.9883-1.4336 0.519-0.351 1.2062-0.79395 1.6152-1.002 0.116-0.033-0.13754-0.3406-0.18554-0.3086-1.197 0.672-1.8112 0.23611-3.0352-0.58789l-6.1289-4.1797c-0.024-0.0185-0.0513-0.026-0.0781-0.0234zm0.77149 2.1699 2.7637 1.9824-2.1875 1.4805-0.57617-3.4629zm-5.6543 0.83008c-0.0933 0.004-0.28064 0.0898-0.27539 0.13476 0.095 0.479 0.008 0.51914-1.8398 1.3691l-3.7441 1.7227c-1.865 0.857-1.9072 0.85528-2.2012 0.48828-0.041-0.044-0.34373 0.11616-0.30273 0.16016 0.195 0.245 0.31395 0.50457 0.37695 0.64257 0.167 0.362 0.43672 1.034 0.51172 1.334 0.006 0.061 0.26322-0.0594 0.32422-0.10938-0.106-0.683 0.23936-1.2992 1.5684-1.9102l1.207-0.55664 2.5176 5.4726c0.746 1.623 0.67775 1.9253-0.40625 2.5703-0.052 0.024 0.046 0.41931 0.16797 0.32031 0.504-0.316 1.3498-0.70392 2.0918-1.0449 0.552-0.254 1.4403-0.64244 1.8613-0.77344 0.145-0.047-0.0476-0.37456-0.0996-0.35156-1.256 0.452-1.5108 0.17076-2.2168-1.3652l-2.5176-5.4726 1.1406-0.52344c1.381-0.635 2.0115-0.44369 2.3945 0.0703 0.016 0.035 0.3355-0.0925 0.3125-0.14453-0.097-0.165-0.29658-0.59674-0.39258-0.80273-0.199-0.43201-0.36973-0.89513-0.42773-1.2031 0.0005-0.0213-0.0197-0.0288-0.0508-0.0273zm-61.145 0.29687c-1.9131 0.0182-3.6622 1.0387-4.4824 2.6289-1.141 2.212-0.1758 5.2304 2.4082 6.5644 2.786 1.436 5.9263 0.32139 7.1113-1.9746 1.141-2.213 0.20256-5.241-2.3984-6.582-0.86562-0.44656-1.7691-0.64501-2.6387-0.63672zm0.05664 0.57227c0.65788-0.0648 1.3458 0.0884 2.0234 0.4375 1.688 0.871 2.722 3.2632 1.293 6.0332-1.167 2.263-3.0582 2.6976-4.8652 1.7656-1.689-0.87101-2.722-3.2202-1.293-5.9902 0.735-1.4244 1.7453-2.138 2.8418-2.2461zm8.2656 3.0644c-0.099-0.068-0.15656 0.33066-0.10156 0.34766 1.067 0.413 1.3289 1.064 1.5449 2.752l0.9375 7.4453c0.022 0.125 0.25116 0.15547 0.28516 0.10547l4.9023-5.7461c1.183-1.395 1.7986-1.6708 2.6816-1.5098 0.055 0.016 0.20398-0.35556 0.08398-0.35156-0.592-0.075-0.71906-0.11152-1.5391-0.35352-0.583-0.171-1.138-0.37373-1.541-0.55273-0.099-0.068-0.15656 0.33166-0.10156 0.34766 0.585 0.23099 0.84295 0.42532 0.75195 0.73632-0.096 0.328-0.22489 0.56599-0.96289 1.459l-3.2949 3.9219-0.66016-5.0879c-0.125-0.987-0.05937-1.4803 0.01563-1.7363 0.107-0.364 0.46489-0.29931 1.0879-0.19531 0.097 0.008 0.20398-0.35656 0.08398-0.35156-0.574-0.071-1.5769-0.36556-2.3789-0.60156-0.566-0.166-1.3739-0.44491-1.7949-0.62891zm42.719 0.99023c-0.411 0.158-1.0159 0.32489-1.5879 0.46289-0.812 0.19601-1.2321 0.31729-1.8281 0.36329-0.119-0.01-0.0345 0.33993 0.0625 0.33593 1.237-0.141 1.5066 0.0868 1.8906 1.6758l0.79297 3.2871c0.46 1.902-0.27758 3.1349-2.1426 3.5859-1.422 0.344-3.0581-0.2775-3.5801-2.4375l-0.70898-2.9375c-0.401-1.663-0.38134-2.0586 0.84766-2.4726 0.092-0.022 0.0053-0.39113-0.09766-0.32813-0.429 0.162-1.3485 0.40288-1.9395 0.54688-0.831 0.2-1.7126 0.43151-2.3086 0.47851-0.119-0.011 0.0065 0.34994 0.0625 0.33594 1.236-0.141 1.4979 0.0497 1.9219 1.8047l0.7832 3.252c0.535 2.215 2.689 3.1215 4.832 2.6035 2.475-0.599 3.5156-2.5301 3.0606-4.4141l-0.83983-3.4707c-0.362-1.496-0.35052-1.9287 0.89648-2.3477 0.037-0.009 0.0268-0.37822-0.11719-0.32422zm-26.529 2.5215c-2.8338 0.006-5.0634 2.0924-5.2969 4.5215-0.238 2.477 1.7798 4.9241 4.6738 5.2031 3.12 0.299 5.6221-1.9026 5.8691-4.4746 0.238-2.478-1.7569-4.9427-4.6699-5.2227-0.19388-0.0186-0.38725-0.0277-0.57617-0.0273zm-0.53906 0.57226c0.23733-0.0171 0.48333-0.0127 0.73633 0.0117 1.891 0.182 3.7375 2.0191 3.4395 5.1211-0.244 2.534-1.8393 3.6413-3.8633 3.4473-1.891-0.182-3.7218-1.98-3.4238-5.082 0.21438-2.2348 1.45-3.378 3.1113-3.498zm8.1777 7.9883c-0.399 0.007-0.69936 0.27867-0.69336 0.63867 0.006 0.324 0.18092 0.47272 0.54492 0.63672 0.46 0.219 0.67173 0.40746 0.67773 0.73046 0.009 0.474-0.28595 1.0122-1.502 1.0332-0.038 0.001-0.08956 0.36233 0.02344 0.36133 1.311-0.024 2.2485-0.87652 2.2285-1.9785-0.016-0.931-0.6723-1.4339-1.2793-1.4219z"/><path stroke-linejoin="round" d="m52.292 62.751h63.567m-63.568 44.999h63.567m-32.23-74.61c-27.861 0-50.451 22.59-50.451 50.45 0 27.865 22.59 50.455 50.451 50.455s50.45-22.59 50.45-50.455c0-27.861-22.589-50.45-50.45-50.45z" stroke="#c5af7d" stroke-linecap="round" fill="none"/><path fill="#002e5d" d="m67.852 50.193c-1.968 0-3.4199 1.5357-3.4199 3.1797 0 1.572 1.416 2.9883 3.252 2.9883 1.98 0 3.4199-1.536 3.4199-3.168 0-1.572-1.404-3-3.252-3zm-9.0957 0.10938c-0.072-0.012-0.03767 0.24024-0.01367 0.24024 0.912 0.096 1.0098 0.23891 1.0098 1.3789v2.7129c0 1.116-0.13212 1.2832-0.82812 1.3672-0.036 0-0.072 0.25252 0 0.22852 0.384-0.048 0.88634-0.04883 1.4023-0.04883 0.384 0 1.0443 0.01283 1.3203 0.04883 0.096 0.012 0.07172-0.22852 0.01172-0.22852-0.852-0.072-0.93555-0.22719-0.93555-1.3672v-1.2617h0.5293c0.972 0 1.0667 0.1693 1.1387 0.5293 0.012 0.072 0.25252 0.04856 0.22852-0.02344-0.024-0.084-0.01172-0.45617-0.01172-0.57617 0-0.252 0.01255-0.66041 0.06055-0.81641 0.012-0.048-0.21652-0.04744-0.22852-0.02344-0.108 0.42-0.2035 0.55078-1.1875 0.55078h-0.5293v-1.1406c0-0.564 0.01283-0.89952 0.04883-1.1035h0.88672c1.367 0 1.3438 0.17958 1.4648 0.76758 0.012 0.036 0.2168 0.02428 0.2168-0.01172-0.036-0.24-0.04798-0.79209-0.08398-0.99609-0.024-0.168-0.09595-0.19141-0.25195-0.19141-0.336 0-0.92426 0.03516-1.5723 0.03516-0.912 0-2.0038-0.01031-2.6758-0.07031zm36.719 0c-0.071-0.012-0.035 0.24024 0 0.24024 0.912 0.096 0.99609 0.23891 0.99609 1.3789v2.7129c0 1.14-0.08409 1.2592-0.99609 1.3672-0.035 0-0.071 0.22852 0 0.22852 0.673-0.048 1.7657-0.04883 2.6777-0.04883 0.672 0 1.2343 0.04883 1.5703 0.04883 0.156 0 0.21595-0.0368 0.25195-0.2168 0.06-0.18 0.15736-0.76809 0.19336-0.99609 0-0.036-0.24024-0.03544-0.24024-0.02344-0.132 0.588-0.16883 0.7793-1.5488 0.7793h-0.46875c-0.408-0.000001-0.4668-0.10777-0.4668-1.2598v-1.1875h0.59961c0.96 0 1.0312 0.03591 1.1152 0.50391 0 0.012 0.25252 0.000281 0.22852-0.01172v-0.51562c0-0.204 0.01383-0.57698 0.04883-0.70898 0.013-0.06-0.2168-0.04744-0.2168-0.02344-0.096 0.384-0.16778 0.4082-1.1758 0.4082h-0.59961v-1.1055c0-0.564 0.01087-0.89952 0.04687-1.1035h0.78125c1.163 0 1.3069 0.19189 1.3789 0.58789 0 0.024 0.22852 0.01228 0.22852-0.01172-0.012-0.06 0-0.32392 0-0.41992 0-0.18-0.000453-0.43105 0.06055-0.62305-0.553 0.048-1.1772 0.07031-1.8242 0.07031-0.912 0-1.9676-0.01031-2.6406-0.07031zm-15.586 0.01172c-0.072-0.024-0.04772 0.22852-0.01172 0.22852 0.408 0.048 1.1621 0.59981 1.1621 1.0078v3.084c0 1.02-0.11816 1.2832-0.91016 1.3672-0.036 0-0.06 0.24052 0 0.22852 0.384-0.048 0.76692-0.04883 1.2949-0.04883 0.372 0 0.69666 0.01283 0.97266 0.04883 0.072 0.024 0.04744-0.22852 0.02344-0.22852-0.828-0.072-0.91211-0.40719-0.91211-1.3672v-2.8926l4.4766 4.5469c0.072 0.072 0.21484 0.02428 0.21484-0.01172-0.048-0.384-0.05859-1.1986-0.05859-1.6426v-2.7129c0-0.96 0.07211-1.3189 0.91211-1.3789 0.025 0 0.08289-0.24052-0.03711-0.22852-0.264 0.036-0.67069 0.05859-1.0547 0.05859-0.528 0-0.82945 0.0014-1.1895-0.05859-0.073-0.024-0.07272 0.21652-0.01172 0.22852 0.78 0.084 0.90039 0.34691 0.90039 1.3789v2.7969l-4.1875-4.332c-0.516 0-1.212-0.01227-1.584-0.07227zm8.3379 0c-0.12-0.024-0.05944 0.22852-0.02344 0.22852 0.792 0.084 0.91211 0.23891 0.91211 1.3789v2.7129c0 1.128-0.12011 1.2832-0.91211 1.3672-0.036 0-0.10633 0.24052 0.01367 0.22852 0.372-0.048 1.0911-0.04883 1.6191-0.04883 0.216 0 1.0318 0.03711 1.3438 0.03711 2.028 0 3.4551-1.3814 3.4551-3.0254 0-1.608-1.1759-2.8555-3.3359-2.8555-0.324 0-1.1629 0.03516-1.3789 0.03516-0.54 0-1.3334 0.0014-1.6934-0.05859zm13.211 0c-0.119-0.024-0.0594 0.22852-0.0234 0.22852 0.792 0.084 0.91211 0.23891 0.91211 1.3789v2.7129c0 1.128-0.12011 1.2832-0.91211 1.3672-0.036 0-0.10633 0.24052 0.0137 0.22852 0.372-0.048 1.0911-0.04883 1.6192-0.04883 0.21599 0 1.0327 0.03711 1.3437 0.03711 2.028 0 3.4551-1.3814 3.4551-3.0254 0-1.608-1.1759-2.8555-3.3359-2.8555-0.324 0-1.1629 0.03516-1.3789 0.03516-0.54 0-1.3334 0.0014-1.6934-0.05859zm-29.41 0.01172c-0.072-0.024-0.04772 0.2168-0.01172 0.2168 0.78 0.096 0.91211 0.25062 0.91211 1.3906v2.1133c0 1.44 1.1881 2.3145 2.5801 2.3145 1.608 0 2.5312-1.0319 2.5312-2.2559v-2.2559c0-0.972 0.07239-1.2346 0.90039-1.3066 0.024 0 0.07256-0.2288-0.02344-0.2168-0.276 0.036-0.67292 0.04687-1.0449 0.04687-0.528 0-0.80378 0.01313-1.1758-0.04687-0.072-0.024-0.07172 0.2048-0.01172 0.2168 0.78 0.096 0.91211 0.27464 0.91211 1.3066v2.1367c0 1.236-0.63566 1.8828-1.8477 1.8828-0.924 0-1.8359-0.62334-1.8359-2.0273v-1.9082c0-1.08 0.07267-1.3186 0.88867-1.3906 0.06 0 0.05833-0.2408-0.01367-0.2168-0.288 0.036-0.88748 0.04687-1.2715 0.04687-0.54 0-1.1163 0.01313-1.4883-0.04687zm-4.3809 0.24023c1.2 0 2.4707 1.0437 2.4707 3.0117 0 1.608-0.93475 2.4004-2.2188 2.4004-1.2 0-2.4609-1.0203-2.4609-2.9883 0-1.62 0.92498-2.4238 2.209-2.4238zm23.377 0.14453c1.668 0 2.6289 0.95975 2.6289 2.8438 0 1.548-1.1537 2.2793-2.2207 2.2793-1.284 0-1.3438-0.21695-1.3438-0.87695v-3.0352c0-0.684 0.01031-0.87606 0.07031-1.1641 0.145-0.024 0.26524-0.04687 0.86524-0.04687zm13.213 0c1.668 0 2.627 0.95975 2.627 2.8438 0 1.548-1.1527 2.2793-2.2207 2.2793-1.283 0-1.3438-0.21695-1.3438-0.87695v-3.0352c0-0.684 0.0113-0.87606 0.0723-1.1641 0.144-0.024 0.26424-0.04687 0.86524-0.04687zm-62.306 22.82c-0.074 0-0.08962 0.27692-0.01563 0.29492 0.006 0.001 0.01367 0.0039 0.01367 0.0039 0.737 0.125 1.1946 0.17027 1.6426 0.44727 0.457 0.284 0.41797 0.51125 0.41797 1.1562l-0.002 19.896c0 0.646 0.03708 0.87716-0.41992 1.1602-0.447 0.277-0.90458 0.32227-1.6426 0.44727 0 0-0.0077 0.0019-0.01367 0.0039-0.073 0.019-0.06133 0.29492 0.01367 0.29492h16.098c6.789 0 9.6445-2.6925 9.6445-6.8945 0-3.106-1.4475-5.0077-4.3125-5.7207-0.048-0.014-0.051-0.0778 0-0.0918 1.825-0.57 3.5039-1.892 3.5039-5.127 0-4.386-2.9637-5.8711-9.4297-5.8711h-15.498zm44.588 0c-0.091 0-0.07114 0.28988 0.0059 0.29688 0.006 0.001 0.01367 0.0039 0.01367 0.0039 0.538 0 1.1998 0.0044 1.0918 0.77539-0.061 0.749-3.2546 5.3632-4.3906 7.1152-0.163 0.251-0.28875 0.51117-0.34375 0.82617-0.041-0.31-0.23714-0.62627-0.36914-0.82227-1.584-2.36-4.2931-6.1841-4.3711-7.1211-0.065-0.8 0.5548-0.77539 1.0918-0.77539 0 0 0.0077-0.0039 0.01367-0.0039 0.076-0.007 0.10462-0.29297 0.01563-0.29297h-11.629c-0.068 0-0.06119 0.26697 0.0078 0.29297 0.006 0.002 0.01367 0.0039 0.01367 0.0039 0.497 0.05 0.76761 0.01583 1.3496 0.29883 0.068 0.033 0.23092 0.14136 0.29492 0.19336 0.368 0.311 0.59392 0.59858 1.0449 1.2676l8.1992 12.141v7.6016c0 0.646 0.03903 0.87716-0.41797 1.1602-0.448 0.277-0.90753 0.32322-1.6445 0.44922 0 0-0.0077 0.000953-0.01367 0.002-0.074 0.019-0.06133 0.29688 0.01367 0.29688h12.621v-0.002c0.074 0 0.08863-0.27788 0.01563-0.29688-0.006-0.001-0.01367-0.002-0.01367-0.002-0.737-0.126-1.1946-0.17222-1.6426-0.44922-0.457-0.283-0.41992-0.5132-0.41992-1.1582v-7.5508l8.2109-12.191c0.45-0.669 0.73647-1.0171 1.1055-1.3281 0.063-0.053 0.21364-0.15294 0.30664-0.21094 0.338-0.17 0.46872-0.21066 0.88672-0.22266 0 0 0.0077-0.000953 0.01367-0.002 0.075-0.01 0.09967-0.29492 0.01367-0.29492h-11.074zm28.766 0c-0.074 0-0.0886 0.27788-0.0156 0.29688 0.007 0.001 0.0156 0.002 0.0156 0.002 0.75 0.093 1.0979 0.17222 1.5449 0.44922 0.457 0.284 0.41797 0.51125 0.41797 1.1562l0.002 11.959c0 2.727-1.5631 4.8223-4.6621 4.8223-3.102 0-4.6641-2.0963-4.6641-4.8223v-11.955c0-0.645-0.0371-0.87616 0.41992-1.1602 0.447-0.278 0.82092-0.34722 1.5449-0.44922 0 0 0.008 0.000047 0.0137-0.002 0.074-0.019 0.0604-0.29492-0.0156-0.29492h-11.205c-0.083 0-0.06609 0.27797 0.0039 0.29297 0.006 0.001 0.01367 0.0039 0.01367 0.0039 0.41 0.025 0.69136 0.04767 0.94336 0.26367 0.374 0.317 0.43359 0.6958 0.43359 1.3418v11.756c0 5.666 3.1007 10.479 12.512 10.479 9.408 0 12.51-4.8125 12.51-10.479v-11.756h-0.002c0-0.646-0.0371-0.87325 0.41992-1.1562 0.447-0.277 0.90558-0.32422 1.6426-0.44922 0 0 0.008 0.000047 0.0137-0.002 0.073-0.019 0.0613-0.29688-0.0137-0.29688h-11.873zm-63.79 4.426s0.28836 0.04687 0.56836 0.04687h3.1152c2.371 0 3.7617 0.36648 3.7617 2.5215 0 1.4-0.86302 2.6484-3.666 2.6484h-3.2109c-0.28 0-0.55859 0.03711-0.55859 0.03711s0.03711-0.27064 0.03711-0.55664v-4.1309c0-0.319-0.04687-0.56641-0.04687-0.56641zm0.0078 8.8418s0.27859 0.03906 0.55859 0.03906h2.6348c2.102 0 4.6738 0.000156 4.6738 2.9102 0 2.154-1.8404 2.9082-4.3184 2.9082h-2.9883c-0.282 0-0.55273 0.04297-0.55273 0.04297s0.03125-0.28755 0.03125-0.56055v-4.7793c0-0.321-0.03906-0.56055-0.03906-0.56055zm28.873 27.191c-1.296 0-2.3164 0.87672-2.3164 2.1367 0 0.901 0.64802 1.4416 1.416 1.9336-1.152 0.48-1.8359 1.2458-1.8359 2.1348 0 1.164 1.0801 1.9815 2.3281 1.9805 1.5 0 2.543-1.0204 2.543-2.3164 0-1.057-0.80425-1.6556-1.6562-2.1836 0.984-0.528 1.4883-1.0936 1.4883-1.9336 0-0.984-0.8868-1.752-1.9668-1.752zm-0.2168 0.36133c0.768 0 1.332 0.60113 1.332 1.4531 0 0.696-0.36009 1.2602-0.99609 1.6562-0.816-0.492-1.5723-0.98533-1.5723-1.8613 0-0.744 0.49233-1.248 1.2363-1.248zm15.445 1.457c-0.05425-0.001-0.10938 0.008-0.10938 0.0195-0.108 0.479-0.21591 0.64649-0.50391 0.64649-0.624 0-1.1502-0.32227-1.5352-0.32227-0.456 0-0.80574 0.34638-1.1777 1.2344-0.12 0.3-0.26367 0.85234-0.26367 1.1523 0 0.672 0.45603 1.02 1.332 1.416 1.056 0.481 1.3438 0.9237 1.3438 1.5957 0 1.225-1.3208 1.9807-2.5918 2.3047-0.025 0 0.000265 0.2288 0.07227 0.2168 2.292-0.444 3.4922-1.536 3.4922-2.832 0-0.817-0.46816-1.5487-1.5352-2.0527-1.465-0.696-1.5859-0.89948-1.5859-1.2715 0-0.42 0.26333-0.85157 0.61133-0.85157 0.565 0 1.0215 0.36038 1.6465 0.35938 0.552 0 0.88811-0.39527 0.91211-1.5723 0-0.0295-0.05317-0.0416-0.10742-0.043zm-5.7969 0.53516c-0.755 0.048-1.3564 0.0606-2.4004 0.0606-0.768 0-1.5476-0.0371-1.9316-0.0371-0.144 0-0.19352 0.0594-0.22852 0.1914-0.049 0.181-0.14314 1.3936-0.11914 1.6816 0 0.036 0.21484 0.0357 0.21484 0.0117 0.048-0.732 0.24086-0.92383 1.3809-0.92383h2.459c-0.924 1.679-2.2676 4.1282-3.6836 6.4922-0.072 0.108 0.49174 0.33652 0.55274 0.22852 1.152-2.232 2.8201-5.4006 3.9121-7.3926 0.036-0.061-0.10825-0.3125-0.15625-0.3125zm-17.568 0.0137c-0.072-0.024-0.036 0.21485 0 0.21485 0.744 0.084 1.0684 0.12118 1.0684 1.1172v3.0234c0 0.996-0.32436 1.0195-1.0684 1.1035-0.036 0-0.072 0.25251 0 0.22851 0.36-0.048 1.164-0.0488 1.668-0.0488 0.36 0 1.1523 0.0128 1.4043 0.0488 0.072 0.024 0.05944-0.22851 0.02344-0.22851-0.78-0.072-1.0566-0.16652-1.0566-1.1035v-3.0234c0-0.936 0.27664-1.0452 1.0566-1.1172 0.036 0 0.04856-0.23885-0.02344-0.21485-0.252 0.035-1.0443 0.0469-1.4043 0.0469-0.504 0-1.308 0.001-1.668-0.0469zm7.6191 1.9297c0.9 0.54 1.8242 1.0559 1.8242 2.0879 0 0.804-0.57627 1.4277-1.5723 1.4277-0.732 0-1.5469-0.52742-1.5469-1.6074 0-0.924 0.44292-1.4872 1.2949-1.9082z"/></g></svg>
