<?xml version="1.0" encoding="UTF-8" standalone="no"?>
<svg xmlns:rdf="http://www.w3.org/1999/02/22-rdf-syntax-ns#" xmlns="http://www.w3.org/2000/svg" xml:space="preserve" height="162.2" viewBox="0 0 162.2 162.20375" width="162.2" version="1.1" xmlns:cc="http://creativecommons.org/ns#" xmlns:dc="http://purl.org/dc/elements/1.1/"><g transform="matrix(1.25 0 0 -1.25 -197.8 544.2)"><g><g><path d="m223.27 434.33c-35.186 0-63.711-28.526-63.711-63.711 0-35.183 28.525-63.711 63.711-63.711 35.187 0 63.708 28.528 63.708 63.711 0 35.185-28.521 63.711-63.708 63.711" fill="#fff"/><path d="m225.91 431.29c-33.493 1.461-61.838-24.505-63.299-58.004-1.459-33.492 24.507-61.834 58.001-63.292 33.495-1.466 61.837 24.504 63.298 57.997 1.462 33.495-24.504 61.838-58 63.299" fill="#9e1b34"/><path d="m223.27 412.05c-22.868 0-41.411-18.539-41.411-41.414 0-22.87 18.543-41.408 41.411-41.408 22.873 0 41.411 18.538 41.411 41.408 0 22.875-18.538 41.414-41.411 41.414" fill="#fff"/><path d="m77.641 12.447c-0.108-0.038-0.08 0.343-0.026 0.344 0.614 0.086 1.733 0.946 1.719 1.561l-0.109 4.648c-0.035 1.538-0.224 1.931-1.42 2.031-0.055-0.002-0.101 0.36-0.01 0.342 0.58-0.059 1.159-0.044 1.955-0.025 0.561 0.012 1.05 0.041 1.465 0.105 0.107 0.039 0.079-0.342 0.043-0.344-1.245-0.137-1.36-0.645-1.326-2.091l0.101-4.362 6.588 7.012c0.105 0.111 0.325 0.045 0.326-0.01-0.058-0.58-0.049-1.812-0.033-2.48l0.096-4.088c0.034-1.448 0.153-1.988 1.422-2.049 0.036 0.001 0.134-0.358-0.047-0.346-0.399 0.047-1.015 0.069-1.594 0.055-0.796-0.018-1.247-0.028-1.787-0.131-0.108-0.04-0.117 0.323-0.027 0.342 1.172 0.155 1.344 0.555 1.308 2.111l-0.097 4.217-6.163-6.678c-0.777-0.017-1.826-0.06-2.384-0.164zm-3.203 0.278c-0.399 0.127-0.984 0.252-1.536 0.353-0.783 0.141-1.19 0.233-1.757 0.244-0.114-0.016-0.052 0.323 0.041 0.324 1.182-0.067 1.427 0.165 1.705 1.696l0.574 3.168c0.334 1.834-0.435 2.965-2.233 3.293-1.371 0.248-2.894-0.43-3.271-2.514l-0.514-2.83c-0.291-1.603-0.248-1.978 0.944-2.305 0.088-0.016 0.023-0.373-0.077-0.318-0.417 0.131-1.306 0.31-1.875 0.414-0.801 0.145-1.651 0.319-2.22 0.33-0.113-0.016-0.013 0.333 0.041 0.324 1.182-0.067 1.421 0.128 1.728 1.821l0.569 3.13c0.387 2.137 2.386 3.118 4.451 2.743 2.385-0.433 3.478-2.213 3.148-4.03l-0.607-3.345c-0.261-1.443-0.226-1.854 0.984-2.184 0.035-0.007 0.045-0.358-0.095-0.314zm21.05 1.228c-2.543-0.054-4.598 1.633-5.058 3.754-0.499 2.299 0.927 4.758 3.986 5.422 1.326 0.289 2.451 0.144 3.752-0.221-0.134-0.234-0.088-0.539-0.002-0.928 0.365-1.68 0.399-1.838 1.625-1.683 0.053 0.012 0.167-0.333 0.053-0.32-0.418-0.037-1.219-0.192-1.768-0.311-0.777-0.17-1.76-0.419-2.312-0.596-0.104-0.041-0.129 0.324-0.076 0.336 1.392 0.414 1.431 0.496 1.062 2.194-0.065 0.301-0.19 0.698-0.273 0.828-0.114 0.18-0.399 0.47-1.778 0.17-1.91-0.415-3.303-2.18-2.676-5.063 0.519-2.387 2.145-3.404 4.125-2.973 1.822 0.396 2.674 1.931 2.518 2.991-0.007 0.035 0.321 0.145 0.34 0.056 0.251-0.816 0.373-1.974 0.285-2.086-0.184-0.262-1.431-1.164-2.687-1.435-0.381-0.083-0.752-0.127-1.116-0.135zm-36.935 2.723c-0.637-0.008-1.297 0.105-1.946 0.359-2.763 1.083-3.958 4.037-3.054 6.346 0.863 2.207 3.631 3.417 6.209 2.408 2.78-1.089 3.957-4.037 3.06-6.328-0.648-1.656-2.359-2.763-4.269-2.785zm-0.668 0.775c1.425 0.067 2.956 1.018 3.767 3.09 0.884 2.259 0.004 3.884-1.798 4.59-1.685 0.659-4.015-0.08-5.096-2.844-0.891-2.274-0.035-3.911 1.767-4.617 0.422-0.165 0.885-0.241 1.36-0.219zm50.495 0.465c-0.08-0.082-0.22 0.256-0.17 0.281 0.98 0.67 1.05 0.97 0.25 2.496l-1.46 2.828c-1 1.928-0.02 3.925 1.84 4.891 2.15 1.116 4.11 0.377 4.96-1.262l1.56-3.019c0.68-1.301 0.96-1.606 2.12-1.127 0.03 0.017 0.25-0.255 0.12-0.305-0.4-0.144-0.94-0.402-1.44-0.66-0.7-0.367-1.08-0.543-1.54-0.881-0.08-0.082-0.24 0.223-0.16 0.28 0.97 0.67 1.03 1.002 0.31 2.384l-1.48 2.86c-0.86 1.653-2.16 2.079-3.78 1.238-1.24-0.641-2.03-2.11-1.05-3.988l1.32-2.555c0.75-1.446 1.01-1.716 2.16-1.246 0.08 0.041 0.24-0.28 0.13-0.299-0.41-0.151-1.22-0.552-1.74-0.818-0.72-0.375-1.5-0.759-1.95-1.098zm-58.468 2.168c-0.325 0.262-0.625 0.468-1.119 0.771-0.678 0.417-1.171 0.72-1.688 0.952-0.142 0.045 0.118 0.331 0.165 0.302 1.006-0.468 1.128-0.481 0.968 1.784l-0.131 1.863-1.312-0.615c-2.083-0.973-2.455-1.129-1.5-1.821 0.046-0.028-0.122-0.372-0.195-0.283-0.327 0.264-1.073 0.743-1.567 1.047-0.679 0.415-1.279 0.784-1.81 1.025-0.112 0.027 0.133 0.322 0.179 0.293 1.029-0.503 1.459-0.426 3.604 0.614l2.017 0.968 0.975 1.59c1.051 1.713 0.849 1.728-0.078 2.467-0.046 0.029 0.106 0.38 0.18 0.293 0.456-0.365 1.196-0.819 1.89-1.244 0.494-0.304 1.273-0.762 1.672-0.944 0.111-0.025-0.116-0.33-0.162-0.302-1.106 0.551-1.249 0.596-2.252-1.037l-1.09-1.774 0.188-2.428c0.162-2.158 0.306-2.545 1.261-3.238 0.045-0.027-0.121-0.372-0.195-0.283zm70.328 4.354c-0.09 0.05-0.2 0.234-0.17 0.259 0.44 0.445 0.8 1.81 0.41 2.287l-2.93 3.614c-0.97 1.193-1.36 1.39-2.37 0.736-0.04-0.035-0.29 0.223-0.21 0.266 0.49 0.308 0.94 0.674 1.56 1.175 0.44 0.354 0.8 0.674 1.09 0.979 0.06 0.096 0.27-0.22 0.25-0.244-0.9-0.87-0.68-1.345 0.23-2.469l2.75-3.387 0.92 9.578c0.01 0.153 0.23 0.234 0.26 0.192 0.31-0.496 1.07-1.463 1.49-1.983l2.58-3.177c0.91-1.125 1.34-1.478 2.38-0.75 0.03 0.022 0.32-0.201 0.17-0.301-0.34-0.209-0.84-0.567-1.29-0.932-0.62-0.501-0.97-0.786-1.34-1.199-0.06-0.097-0.29 0.185-0.23 0.256 0.84 0.839 0.73 1.263-0.25 2.471l-2.66 3.275-0.79-9.053c-0.6-0.49-1.41-1.164-1.79-1.588-0.01-0.024-0.04-0.022-0.06-0.005zm-85.121 5.91c-0.029-0.011-0.053-0.007-0.064 0.019-0.374 0.541-1.287 1.593-1.94 2.223 0.411 0.622 0.758 1.502 1.182 2.406l1.949 4.168-7.213-2.094c-0.867 0.948-1.504 1.64-2.047 2.1-0.1 0.055 0.203 0.259 0.241 0.221 0.776-0.688 1.686-0.69 2.14-0.248l3.447 3.283c1.123 1.077 1.279 1.467 0.567 2.433-0.038 0.04 0.206 0.338 0.254 0.233 0.337-0.476 0.729-0.903 1.254-1.477 0.391-0.426 0.735-0.775 1.056-1.045 0.1-0.055-0.206-0.284-0.242-0.244-0.911 0.834-1.343 0.582-2.412-0.422l-3.352-3.17 7.434 2.225c0.078 0.022 0.226-0.112 0.184-0.199l-3.176-7.086 3.555 3.162c1.266 1.135 1.331 1.44 0.701 2.287-0.037 0.04 0.221 0.323 0.267 0.219 0.338-0.476 0.838-1.022 1.389-1.623 0.39-0.427 1.103-1.174 1.436-1.457 0.101-0.057-0.205-0.288-0.243-0.246-1.021 0.952-1.345 0.827-2.57-0.246l-3.064-2.711c-1.225-1.074-1.404-1.36-0.532-2.5 0.018-0.02-0.114-0.178-0.201-0.211zm95.821 3.474c-0.1 0.034-0.22 0.204-0.2 0.225 0.7 0.976 0.64 1.266-0.64 2.41l-3.06 2.721c-1.26 1.13-1.56 1.153-2.45 0.345-0.02-0.027-0.37 0.158-0.24 0.243 0.43 0.382 1.01 1.032 1.55 1.64 0.37 0.405 0.98 1.121 1.21 1.467 0.09 0.121 0.31-0.174 0.28-0.201-0.75-1.005-0.57-1.331 0.63-2.401l3.05-2.718c1.2-1.072 1.57-1.231 2.47-0.36 0.02 0.028 0.34-0.157 0.23-0.254-0.31-0.275-0.97-0.954-1.33-1.359-0.54-0.607-1.12-1.256-1.42-1.734-0.02-0.03-0.05-0.035-0.08-0.024zm4.73 5.299c-0.09 0.027-0.25 0.179-0.23 0.213 0.52 0.957 0.32 1.593-0.56 2.953l-3.9 5.99c-0.06 0.105 0.09 0.267 0.14 0.252l7.1-1.164c1.72-0.286 2.33-0.108 2.88 0.553 0.03 0.045 0.36-0.134 0.28-0.205-0.39-0.419-0.46-0.523-0.91-1.203-0.32-0.484-0.59-0.972-0.78-1.35-0.03-0.111-0.31 0.143-0.28 0.188 0.28 0.528 0.35 0.831 0.09 1-0.27 0.178-0.51 0.273-1.6 0.468l-4.81 0.825 2.65-4.104c0.52-0.796 0.87-1.116 1.08-1.256 0.31-0.199 0.53 0.071 0.91 0.53 0.07 0.066 0.37-0.134 0.28-0.206-0.37-0.403-0.92-1.235-1.36-1.9-0.31-0.469-0.72-1.168-0.92-1.56-0.01-0.028-0.03-0.033-0.06-0.024zm-112.79 6.365c-0.113-0.025-0.189 0.141-0.129 0.217l4.098 5.947c0.952 1.37 1.131 2.025 0.728 2.838-0.027 0.048 0.255 0.281 0.295 0.178 0.245-0.55 0.31-0.659 0.709-1.328 0.296-0.496 0.599-0.969 0.859-1.299 0.087-0.074-0.239-0.269-0.285-0.191-0.342 0.47-0.521 0.763-0.785 0.605-0.311-0.185-0.658-0.624-1.166-1.328l-0.609-0.848 1.504-2.517 0.99 0.211c0.711 0.151 1.343 0.255 1.701 0.468 0.311 0.187 0.039 0.467-0.215 1.032-0.027 0.046 0.27 0.289 0.295 0.177 0.235-0.535 0.736-1.373 1.135-2.041 0.306-0.512 0.721-1.172 0.99-1.517 0.088-0.074-0.258-0.239-0.287-0.192-0.761 1.063-1.464 0.937-2.852 0.719l-6.976-1.131zm1.467 1.571l3.183 0.595-1.291 2.16-1.892-2.755zm117.95 2.716c-0.1 0.016-0.28 0.141-0.26 0.178 0.43 1.314 0.28 1.516-1.28 2.219l-3.73 1.674c-1.57 0.702-1.79 0.662-2.5-0.526-0.02-0.05-0.36 0.04-0.32 0.139 0.48 0.895 1.16 2.397 1.72 3.652 0.42 0.925 0.7 1.731 0.9 2.194 0.1 0.215 0.19 0.274 0.46 0.213 0.28-0.029 1.15-0.259 1.49-0.35 0.05-0.022-0.1-0.351-0.12-0.344-0.89 0.182-1.18 0.249-2.03-1.65l-0.28-0.643c-0.26-0.562-0.15-0.712 1.44-1.422l1.63-0.732 0.37 0.826c0.6 1.321 0.59 1.442 0 1.846-0.02 0.007 0.16 0.347 0.16 0.307 0.11-0.053 0.56-0.254 0.71-0.319 0.28-0.126 0.8-0.34 1-0.371 0.09-0.021-0.07-0.327-0.1-0.312-0.59 0.105-0.67 0.019-1.29-1.368l-0.37-0.824 1.52-0.681c0.78-0.348 1.25-0.539 1.55-0.616l0.48 1.075c0.72 1.602 0.54 1.917 0.04 2.259-0.03 0.017 0.13 0.323 0.16 0.309 0.07-0.054 0.45-0.201 0.58-0.26 0.25-0.111 0.59-0.266 0.89-0.303-0.4-0.728-0.82-1.572-1.22-2.464-0.56-1.255-1.2-2.717-1.53-3.678-0.01-0.027-0.03-0.033-0.07-0.028zm-123.23 2.745c-0.033 0.002-0.058 0.016-0.058 0.044-0.091 0.41-0.413 1.41-0.615 1.971-0.265 0.733-0.546 1.458-0.823 1.955-0.047 0.079 0.323 0.173 0.34 0.123 0.46-0.95 0.783-1.045 2.383-0.466l1.615 0.584-1.648 4.56-1.617-0.584c-1.514-0.547-1.823-0.813-1.54-1.865 0.019-0.051-0.325-0.214-0.328-0.1-0.096 0.426-0.333 1.189-0.531 1.733-0.265 0.731-0.608 1.684-0.885 2.181-0.071 0.089 0.3 0.185 0.319 0.135 0.603-1.245 0.85-1.291 2.466-0.707l3.846 1.391c1.616 0.583 1.744 0.766 1.43 2.115-0.019 0.051 0.32 0.23 0.324 0.115 0.129-0.569 0.471-1.523 0.736-2.254 0.197-0.544 0.485-1.286 0.684-1.676 0.071-0.09-0.3-0.184-0.318-0.134-0.454 0.991-0.86 0.996-2.358 0.455l-1.734-0.627 1.648-4.561 1.735 0.629c1.582 0.573 1.754 0.845 1.515 1.875-0.017 0.051 0.311 0.209 0.325 0.117 0.128-0.57 0.386-1.284 0.65-2.015 0.204-0.563 0.577-1.544 0.769-1.916 0.072-0.09-0.285-0.218-0.316-0.133-0.599 1.284-0.912 1.247-2.443 0.693l-3.848-1.39c-1.531-0.554-1.829-0.738-1.451-2.102 0.023-0.064-0.172-0.154-0.272-0.146zm127 6.812c-0.1 0.01-0.27 0.12-0.23 0.166 0.09 0.183 0.15 0.334 0.19 0.473 0.16 0.612-0.1 0.982-1.62 1.388l-3.95 1.057c-1.66 0.445-1.92 0.291-2.35-0.812-0.01-0.053-0.4-0.008-0.33 0.087 0.22 0.54 0.45 1.398 0.65 2.166 0.15 0.56 0.37 1.457 0.43 1.872-0.01 0.115 0.35-0.018 0.33-0.071-0.21-1.216 0.07-1.422 1.65-1.844l1.46-0.392c0.03 0.162 0.05 0.249 0.12 0.512 0.07 0.262 0.23 0.65 0.37 0.951-1.91 1.129-3.5 3.296-2.74 6.162 0.03 0.105 0.35-0.037 0.34-0.09-0.41-1.521 1.56-3.824 3.15-5.002 0.72 0.915 1.74 1.316 2.62 1.082 1.4-0.374 1.81-1.833 1.18-4.193-0.39-1.433-0.87-2.969-1.2-3.483-0.01-0.025-0.04-0.032-0.07-0.029zm0.56 3.045c0.07 0.187 0.1 0.235 0.15 0.428 0.41 1.521 0.11 2.5-1.36 2.892-1.19 0.318-2.03-0.186-2.5-1.916-0.06-0.227-0.07-0.336-0.11-0.494l2.1-0.562c0.94-0.253 1.46-0.353 1.72-0.348zm-127.13 3.924c-0.03 0.006-0.048 0.021-0.043 0.049-0.009 0.42-0.112 1.228-0.197 1.783-0.12 0.786-0.308 1.783-0.448 2.348-0.034 0.103 0.332 0.104 0.34 0.05 0.324-1.415 0.404-1.456 2.121-1.195 0.304 0.046 0.709 0.142 0.844 0.219 0.186 0.101 0.493 0.368 0.281 1.763-0.293 1.933-1.966 3.434-4.882 2.991-2.415-0.367-3.534-1.928-3.229-3.93 0.28-1.844 1.76-2.79 2.826-2.701 0.035 0.006 0.124-0.328 0.035-0.342-0.83-0.2-1.995-0.25-2.101-0.156-0.25 0.2-1.07 1.503-1.264 2.773-0.467 3.076 1.553 5.563 4.004 5.936 2.325 0.353 4.69-1.228 5.16-4.325 0.204-1.34-0.012-2.453-0.459-3.728-0.223 0.149-0.53 0.121-0.924 0.062-1.698-0.258-1.86-0.285-1.783-1.517 0.007-0.04-0.19-0.1-0.281-0.08zm127.71 5.004c-0.16-0.017-0.31-0.016-0.47 0.002-2.46 0.273-2.02 4.23-4.27 4.48-0.87 0.096-1.51-0.505-1.62-1.476-0.16-1.403 0.84-2.241 2.19-2.502 0.04-0.004 0.04-0.331-0.05-0.321-0.96 0.053-1.97 0.11-2.02 0.188-0.51 0.766-0.82 1.584-0.71 2.574 0.19 1.708 1.6 2.718 3.07 2.553 2.59-0.289 2.1-4.167 4.26-4.408 0.83-0.093 1.31 0.491 1.4 1.336 0.11 0.971-0.5 1.694-1.47 1.966-0.05 0.007-0.01 0.366 0.04 0.36 0.92-0.103 1.64-0.329 1.7-0.444 0.22-0.497 0.39-1.027 0.31-1.818-0.17-1.448-1.26-2.374-2.36-2.49zm-133.96 7.261c-0.088-0.004-0.173 0.014-0.164 0.086 0.052 0.415 0.085 1.356 0.084 1.899-0.003 0.815-0.005 1.684-0.096 2.244-0.019 0.145 0.344 0.073 0.344 0.037 0.13-1.194 0.365-1.375 2.084-1.369l4.09 0.012c1.7 0.005 1.935 0.186 2.058 1.381 0 0.036 0.379 0.127 0.344-0.018-0.071-0.58-0.069-1.447-0.066-2.262 0.001-0.542 0.023-1.482 0.078-1.898 0.019-0.145-0.344-0.074-0.344-0.039-0.111 1.25-0.456 1.374-2.066 1.369l-4.09-0.01c-1.611-0.005-1.989-0.134-2.076-1.383 0-0.018-0.092-0.044-0.18-0.049zm127.76 0.922c-0.09-0.01-0.17 0.002-0.16 0.075 0.07 0.58 0.06 1.448 0.05 2.261-0.01 0.543-0.04 1.486-0.1 1.901-0.02 0.145 0.34 0.077 0.34 0.041 0.13-1.248 0.47-1.37 2.08-1.348l4.09 0.053c1.61 0.021 1.99 0.152 2.07 1.402-0.01 0.036 0.36 0.114 0.34-0.031-0.05-0.418-0.07-1.358-0.07-1.901 0.01-0.815 0.03-1.682 0.12-2.242 0.02-0.145-0.34-0.077-0.34-0.041-0.14 1.193-0.38 1.37-2.1 1.348l-4.09-0.055c-1.7-0.022-1.93-0.207-2.04-1.402 0-0.018-0.1-0.051-0.19-0.061zm-119.05 4.192c-0.1-0.014-0.284 0.053-0.277 0.093 0.222 1.559-2.006 3.615-3.731 4.594-0.599-0.992-1.568-1.513-2.465-1.385-1.432 0.205-2.018 1.605-1.672 4.024 0.21 1.469 0.511 3.054 0.772 3.601 0.034 0.105 0.361-0.034 0.314-0.101-0.063-0.191-0.103-0.349-0.125-0.492-0.09-0.627 0.209-0.963 1.768-1.186l4.049-0.58c1.701-0.244 1.947-0.06 2.24 1.086 0.007 0.054 0.391 0.054 0.34-0.049-0.154-0.562-0.28-1.441-0.393-2.228-0.082-0.574-0.196-1.489-0.201-1.909 0.02-0.112-0.351-0.022-0.344 0.032 0.068 1.232-0.236 1.404-1.847 1.634l-1.506 0.217c-0.005-0.165-0.018-0.254-0.057-0.523s-0.15-0.673-0.25-0.988c2.029-0.894 3.867-2.858 3.447-5.795-0.004-0.027-0.029-0.041-0.062-0.045zm125.87 3.34c-0.05-0.027-0.09 0.241-0.09 0.316 0.6 0.277 0.91 0.876 0.69 2.252l-0.2 1.252-5.66-0.9c-1.68-0.267-1.89-0.483-1.82-1.682 0-0.054-0.36-0.186-0.35-0.037-0.01 0.565-0.15 1.441-0.27 2.209-0.09 0.572-0.26 1.481-0.38 1.884-0.04 0.14 0.33 0.162 0.33 0.108 0.31-1.234 0.67-1.288 2.26-1.035l5.66 0.9-0.19 1.18c-0.22 1.43-0.71 1.828-1.32 1.859-0.03-0.005-0.1 0.314-0.05 0.322 0.18 0.01 0.63 0.083 0.85 0.118 0.44 0.07 0.9 0.179 1.17 0.297 0.07 0.046 0.14-0.293 0.09-0.319-0.43-0.177-0.41-0.266-0.11-2.178l0.62-3.878c0.3-1.93 0.33-1.964 0.77-2.002 0.06-0.01 0.09-0.333 0.04-0.323-0.3 0.027-0.57-0.018-0.71-0.041-0.38-0.06-1.05-0.204-1.33-0.302zm-131.34 1.353c0.969 0.023 1.595 0.675 1.819 2.227 0.032 0.232 0.03 0.344 0.054 0.506l-2.15 0.306c-0.968 0.14-1.493 0.178-1.754 0.143-0.046-0.195-0.071-0.247-0.1-0.444-0.223-1.558 0.192-2.494 1.696-2.711 0.152-0.021 0.297-0.03 0.435-0.027zm5.045 7.484c-0.183 0.013-0.366 0.047-0.547 0.104-1.121 0.356-1.66 1.59-1.275 3.102-0.605-0.89-1.619-1.328-2.344-1.098-1.292 0.41-1.555 1.975-1.09 3.437 0.138 0.44 0.457 1.26 0.555 1.57 0.241 0.76 0.438 1.38 0.516 1.93 0.02 0.18 0.357-0.02 0.339-0.07-0.222-1.18-0.072-1.42 1.567-1.94l3.898-1.24c1.639-0.52 1.901-0.41 2.383 0.69 0.016 0.05 0.394 0.04 0.322-0.12-0.238-0.52-0.509-1.36-0.744-2.1-0.104-0.33-0.33-1.226-0.467-1.657-0.546-1.721-1.83-2.698-3.113-2.608zm1.043 1.272c0.738 0.037 1.239 0.569 1.58 1.643 0.306 0.966 0.001 1.026-1.396 1.47l-3.95 1.25c-0.948 0.3-1.349 0.41-1.773 0.45-0.06-0.19-0.101-0.2-0.156-0.37-0.35-1.1-0.099-1.921 1.177-2.326 0.932-0.296 1.593-0.069 2.09 1.496 0.017 0.06 0.415-0.07 0.399-0.12-0.77-1.77-0.05-2.966 1.209-3.366 0.302-0.096 0.574-0.139 0.82-0.127zm115.94 0.393c-0.03-0.001-0.06 0.008-0.06 0.037-0.11 0.573-0.38 1.399-0.63 2.172-0.19 0.551-0.49 1.401-0.67 1.801-0.07 0.09 0.3 0.17 0.32 0.12 0.49-1.13 0.57-1.26 2.39-0.66l1.97 0.65 1.43 1.98c1.27 1.75 1.41 2.14 1.13 3.28-0.02 0.05 0.33 0.21 0.33 0.09 0.08-0.41 0.18-0.76 0.36-1.31 0.25-0.76 0.43-1.3 0.67-1.81 0.08-0.13-0.3-0.18-0.32-0.13-0.47 1.01-0.55 1.1-1.89-0.74l-1.1-1.5 1.39-0.38c2.22-0.6 2.61-0.73 2.32 0.42-0.01 0.05 0.34 0.2 0.34 0.09 0.07-0.41 0.33-1.26 0.52-1.81 0.24-0.755 0.47-1.426 0.71-1.955 0.07-0.091-0.3-0.158-0.32-0.105-0.46 1.049-0.84 1.267-3.15 1.859l-2.16 0.561-1.77-0.58c-1.91-0.628-1.77-0.772-1.54-1.936 0.01-0.038-0.18-0.142-0.27-0.144zm-113.76 13.27l-0.821 3.02 3.02 0.82 0.818-3.01-3.017-0.83zm112.71 1.14l-3.03 0.76 0.76 3.04 3.03-0.76-0.76-3.04zm-101.78 7.77c-0.099 0.03-0.213 0.22-0.185 0.25 0.729 0.96 0.683 1.25-0.565 2.43l-2.966 2.82c-1.248 1.18-1.48 1.2-2.543 0.31-0.027-0.03-0.349 0.16-0.237 0.25 0.738 0.67 1.958 1.96 2.903 2.96 0.697 0.73 1.155 1.32 1.504 1.69 0.161 0.17 0.249 0.18 0.496 0.05s1.001-0.55 1.302-0.78c0.039-0.04-0.173-0.29-0.224-0.27-0.664 0.41-0.987 0.57-2.444-0.97l-0.449-0.47c-0.46-0.49-0.179-0.9 0.78-1.81l2.875-2.73c1.168-1.11 1.53-1.28 2.455-0.43 0.025 0.02 0.327-0.21 0.226-0.27-0.326-0.26-0.987-0.9-1.385-1.32-0.536-0.57-1.147-1.21-1.455-1.67-0.024-0.04-0.054-0.05-0.088-0.04zm91.181 0.09c-0.03-0.01-0.06-0.01-0.08 0.02-0.25 0.34-0.86 1.06-1.22 1.46-0.55 0.6-1.14 1.24-1.59 1.59-0.11 0.09 0.2 0.29 0.23 0.26 0.9-0.79 1.2-0.77 2.46 0.4l3.01 2.77c1.25 1.15 1.3 1.44 0.59 2.4-0.03 0.03 0.19 0.35 0.26 0.22 0.34-0.47 0.93-1.11 1.48-1.71 0.37-0.4 1.02-1.08 1.34-1.35 0.11-0.1-0.2-0.29-0.23-0.26-0.92 0.84-1.26 0.71-2.45-0.38l-3.01-2.77c-1.18-1.09-1.38-1.44-0.6-2.42 0.02-0.02-0.1-0.2-0.19-0.23zm-5.03 5.2c-0.03-0.02-0.06-0.01-0.09 0.01-0.28 0.31-0.97 0.95-1.38 1.3-0.62 0.53-1.28 1.09-1.77 1.39-0.12 0.08 0.17 0.31 0.2 0.28 0.99-0.67 1.28-0.61 2.39 0.7l2.65 3.11c1.11 1.29 1.12 1.59 0.29 2.46-0.02 0.03 0.16 0.37 0.24 0.25 0.4-0.43 1.06-0.99 1.68-1.52 0.41-0.35 1.14-0.95 1.49-1.18 0.12-0.08-0.17-0.31-0.2-0.28-1.02 0.72-1.34 0.54-2.38-0.68l-2.65-3.11c-1.05-1.23-1.2-1.6-0.31-2.48 0.02-0.02-0.07-0.2-0.16-0.25zm-76.736 3.38l-6.374 3.39c-1.47 0.79-2.141 0.89-2.904 0.4-0.044-0.03-0.304 0.22-0.207 0.27 0.518 0.31 0.619 0.38 1.236 0.86 0.46 0.35 0.894 0.7 1.192 1 0.064 0.09 0.296-0.21 0.224-0.26-0.427-0.4-0.699-0.61-0.513-0.85 0.22-0.29 0.695-0.59 1.451-1.01l0.914-0.51 2.328 1.78-0.322 0.96c-0.231 0.69-0.408 1.31-0.66 1.64-0.22 0.29-0.468-0.01-1-0.33-0.043-0.03-0.315 0.23-0.207 0.27 0.503 0.29 1.279 0.89 1.898 1.36 0.474 0.36 1.08 0.85 1.393 1.16 0.063 0.09 0.266-0.23 0.222-0.27-0.968-0.87-0.763-1.56-0.388-2.91l1.918-6.8c0.037-0.11-0.118-0.2-0.201-0.15zm-1.526 1.42l-0.955 3.1-1.998-1.53 2.953-1.57zm69.582 1.55c-0.08 0-0.16 0.08-0.14 0.16l0.92 7.16c0.22 1.65 0.08 2.32-0.65 2.86-0.05 0.02 0.1 0.36 0.18 0.29 0.47-0.38 0.58-0.45 1.24-0.86 0.49-0.3 0.98-0.58 1.36-0.76 0.11-0.02-0.09-0.35-0.17-0.3-0.52 0.26-0.81 0.44-0.97 0.18-0.19-0.31-0.3-0.86-0.43-1.71l-0.16-1.04 2.49-1.55 0.79 0.64c0.56 0.46 1.07 0.84 1.29 1.2 0.2 0.3-0.17 0.43-0.66 0.82-0.04 0.02 0.11 0.38 0.18 0.29 0.46-0.37 1.29-0.89 1.95-1.3 0.5-0.31 1.17-0.71 1.57-0.89 0.11-0.03-0.12-0.33-0.17-0.3-1.16 0.59-1.73 0.16-2.86-0.67l-5.69-4.2c-0.02-0.01-0.04-0.02-0.07-0.02zm-62.824 0.71c-0.118-0.08-0.232 0.27-0.199 0.29 0.98 0.69 1.025 0.98 0.187 2.48l-1.992 3.57c-0.829 1.49-1.101 1.61-2.205 1.14-0.033-0.02-0.296 0.27-0.152 0.31 0.541 0.22 1.3 0.64 2.011 1.04 0.474 0.26 1.286 0.73 1.623 0.98 0.118 0.09 0.232-0.26 0.2-0.28-1.038-0.7-0.979-1.07-0.196-2.47l1.991-3.57c0.783-1.41 1.081-1.68 2.214-1.15 0.033 0.02 0.27-0.26 0.135-0.32-0.39-0.15-1.229-0.58-1.703-0.85-0.711-0.39-1.469-0.81-1.914-1.17zm63.484 1.38l2.56 1.99-2.14 1.33-0.42-3.32zm-4.52 0.78c-0.48 0.28-0.57 0.34-1.27 0.6-0.51 0.19-1.14 0.39-1.52 0.47-0.11 0.01 0.04 0.36 0.12 0.32 0.62-0.17 0.9-0.12 1.02 0.2 0.13 0.32 0.15 0.64 0.15 1.51l-0.06 4.72-3.01-3.51c-0.54-0.62-0.71-0.96-0.82-1.27-0.14-0.35 0.1-0.6 0.84-0.94 0.05-0.02-0.06-0.38-0.15-0.31-0.44 0.27-1.65 0.72-2.34 0.98-0.49 0.19-1.23 0.43-1.62 0.51-0.12 0.01 0.03 0.36 0.12 0.33 0.89-0.24 1.5 0.19 2.57 1.27l0.12 0.13-0.23 4.53-3.277-3.42c-0.351-0.37-0.817-1.05-0.914-1.3-0.127-0.34 0.19-0.57 0.746-0.84 0.034-0.01-0.082-0.38-0.138-0.32-0.459 0.27-1.56 0.69-2.239 0.94-0.507 0.19-1.229 0.43-1.638 0.52-0.114 0 0.068 0.34 0.103 0.33 0.947-0.26 1.531 0.06 2.653 1.24l4.904 5.16c0.09 0.1 0.23 0.01 0.24-0.07l0.32-6.12 3.96 4.49c0.07 0.1 0.23 0 0.24-0.08l0.24-7.11c0.05-1.52 0.37-2.32 1.02-2.62 0.04-0.02-0.05-0.37-0.14-0.34zm-52.905 1.09c-0.095-0.05-0.185 0.32-0.133 0.34 1.228 0.63 1.269 0.88 0.646 2.48l-1.482 3.82c-0.624 1.6-0.809 1.72-2.149 1.37-0.051-0.02-0.226 0.28-0.125 0.32 0.97 0.3 2.506 0.9 3.787 1.4 0.944 0.36 1.71 0.74 2.182 0.93 0.219 0.08 0.323 0.06 0.473-0.17 0.182-0.22 0.639-0.99 0.814-1.29 0.02-0.06-0.318-0.19-0.324-0.17-0.508 0.75-0.664 1-2.604 0.25l-0.656-0.26c-0.572-0.22-0.597-0.4 0.031-2.02l0.651-1.67 0.844 0.33c1.348 0.52 1.428 0.61 1.291 1.32-0.007 0.01 0.353 0.13 0.326 0.1 0.046-0.11 0.224-0.57 0.283-0.72 0.111-0.29 0.331-0.8 0.455-0.97 0.05-0.08-0.278-0.19-0.291-0.15-0.346 0.48-0.459 0.48-1.875-0.07l-0.844-0.33 0.604-1.55c0.309-0.79 0.509-1.26 0.672-1.53l1.095 0.43c1.637 0.64 1.733 0.98 1.618 1.58-0.013 0.03 0.314 0.14 0.328 0.11 0.015-0.09 0.176-0.46 0.228-0.59 0.099-0.25 0.237-0.61 0.426-0.85-0.801-0.23-1.69-0.54-2.602-0.89-1.281-0.5-2.758-1.09-3.669-1.55zm34.759 4.41c-0.053 0.02-0.102 0.05-0.113 0.1l-1.898 6.97c-0.432 1.61-0.818 2.17-1.7 2.38-0.053 0.01-0.048 0.38 0.057 0.34 0.578-0.16 0.703-0.18 1.471-0.31 0.57-0.1 1.127-0.17 1.547-0.18 0.111 0.02 0.049-0.36-0.039-0.34-0.58 0.04-0.919 0.09-0.969-0.21-0.059-0.36 0.053-0.91 0.263-1.75l0.254-1.01 2.893-0.48 0.476 0.9c0.344 0.64 0.673 1.18 0.741 1.6 0.06 0.35-0.33 0.33-0.926 0.5-0.053 0.01-0.045 0.39 0.057 0.34 0.56-0.17 1.523-0.33 2.291-0.45 0.59-0.1 1.359-0.21 1.796-0.23 0.113 0.02 0.016-0.35-0.037-0.34-1.303 0.11-1.662-0.51-2.39-1.71l-3.637-6.06c-0.026-0.05-0.083-0.07-0.137-0.06zm-17.316 0.74c-0.108-0.04-0.085 0.34-0.031 0.34 1.37 0.19 1.488 0.41 1.425 2.13l-0.146 4.09c-0.063 1.72-0.196 1.89-1.576 2.01-0.054-0.01-0.124 0.37-0.014 0.34 0.581-0.05 1.594-0.02 2.371 0.01 0.579 0.02 1.374 0.07 1.805 0.14 0.107 0.04 0.085-0.34 0.031-0.34-1.081-0.13-1.212-0.52-1.154-2.11l0.068-1.84 4.844 0.17-0.066 1.85c-0.062 1.68-0.269 1.93-1.323 2.01-0.053 0-0.103 0.36-0.011 0.35 0.581-0.05 1.34-0.03 2.119 0 0.596 0.02 1.643 0.08 2.056 0.15 0.108 0.04 0.122-0.34 0.032-0.34-1.407-0.18-1.467-0.49-1.409-2.12l0.149-4.09c0.059-1.62 0.143-1.96 1.556-2.02 0.092 0 0.107-0.38-0.003-0.34-0.418 0.03-1.467 0.03-2.065 0.01-0.777-0.03-1.554-0.07-2.111-0.18-0.09-0.03-0.068 0.36-0.014 0.36 1.045 0.14 1.234 0.42 1.172 2.12l-0.061 1.72-4.847-0.18 0.062-1.71c0.058-1.61 0.217-1.99 1.305-2.04 0.055 0 0.104-0.37-0.006-0.34-0.436 0.04-1.232 0.04-1.81 0.02-0.778-0.03-1.791-0.06-2.348-0.17zm17.197 1.45l1.6 2.82-2.481 0.4 0.881-3.22zm-27.279 4.17c-0.256 0.02-0.465 0.18-0.531 0.43-0.079 0.3 0.04 0.48 0.332 0.72 0.365 0.32 0.51 0.55 0.431 0.85-0.115 0.44-0.524 0.85-1.644 0.55-0.035 0-0.176 0.31-0.071 0.34 1.207 0.32 2.286-0.22 2.553-1.23 0.228-0.86-0.243-1.49-0.803-1.64-0.091-0.02-0.182-0.03-0.267-0.02z" transform="matrix(.8 0 0 -.8 158.24 435.36)" fill="#fff"/></g><path stroke-linejoin="round" d="m199.29 353.89h48.72m-48.72 32.821h48.72m-24.744 22.606c-21.352 0-38.665-17.312-38.665-38.665 0-21.356 17.313-38.667 38.665-38.667 21.354 0 38.665 17.311 38.665 38.667 0 21.353-17.311 38.665-38.665 38.665zm0 25.016c-35.186 0-63.711-28.526-63.711-63.711 0-35.183 28.525-63.711 63.711-63.711 35.187 0 63.708 28.528 63.708 63.711 0 35.185-28.521 63.711-63.708 63.711z" stroke="#aa800e" stroke-linecap="round" stroke-width=".741" fill="none"/><path d="m86.775 45.438c-0.055-0.002-0.111 0.007-0.111 0.019-0.112 0.495-0.225 0.67-0.521 0.67-0.644 0-1.188-0.334-1.584-0.334-0.472 0-0.831 0.359-1.215 1.275-0.124 0.309-0.272 0.879-0.272 1.188 0 0.694 0.471 1.052 1.373 1.461 1.09 0.495 1.389 0.954 1.389 1.646 0 1.264-1.363 2.042-2.674 2.377-0.025 0 0.001 0.235 0.074 0.223 2.365-0.458 3.602-1.586 3.602-2.924 0-0.84-0.484-1.595-1.586-2.115-1.51-0.719-1.633-0.928-1.633-1.313 0-0.432 0.272-0.879 0.631-0.879 0.583 0 1.054 0.372 1.697 0.372 0.57 0 0.917-0.409 0.942-1.622 0-0.031-0.056-0.043-0.112-0.044zm6.524 0c-0.056-0.002-0.111 0.007-0.111 0.019-0.113 0.495-0.224 0.67-0.522 0.67-0.644 0-1.188-0.334-1.584-0.334-0.47 0-0.829 0.359-1.213 1.275-0.124 0.309-0.271 0.879-0.271 1.188 0 0.694 0.47 1.052 1.373 1.461 1.09 0.495 1.386 0.954 1.386 1.646 0 1.264-1.361 2.042-2.673 2.377-0.024 0-0.001 0.235 0.074 0.223 2.364-0.458 3.601-1.586 3.601-2.924 0-0.84-0.482-1.595-1.584-2.115-1.511-0.719-1.634-0.928-1.634-1.313 0-0.432 0.274-0.879 0.632-0.879 0.583 0 1.052 0.372 1.696 0.372 0.569 0 0.915-0.409 0.941-1.622 0-0.031-0.056-0.043-0.111-0.044zm-15.723 0.427c-1.535 0-2.65 1.19-2.65 2.49 0 0.953 0.682 1.993 1.957 1.993 0.457 0 1.002-0.248 1.336-0.594 0.062-0.05-0.049-0.212-0.135-0.162-0.111 0.061-0.396 0.148-0.645 0.148-0.878 0-1.447-0.667-1.447-1.67 0-1.09 0.47-1.881 1.424-1.881 0.94 0 1.732 0.79 1.732 2.327 0 1.992-0.855 4.022-4.111 5.236-0.074 0.025-0.022 0.236 0.076 0.211 3.8-1.114 5.137-3.38 5.137-5.385 0-1.449-0.99-2.713-2.674-2.713zm-8.58 0.137c-0.074-0.025-0.036 0.223 0 0.223 0.768 0.087 1.104 0.124 1.104 1.15v3.121c0 1.028-0.336 1.053-1.104 1.141-0.036 0-0.074 0.258 0 0.234 0.371-0.05 1.203-0.051 1.723-0.051 0.371 0 1.187 0.014 1.447 0.051 0.074 0.024 0.061-0.234 0.023-0.234-0.803-0.075-1.087-0.175-1.087-1.141v-3.121c0-0.965 0.284-1.075 1.087-1.15 0.038 0 0.051-0.248-0.023-0.223-0.26 0.037-1.076 0.051-1.447 0.051-0.52 0-1.352-0.001-1.723-0.051zm-27.9 24.23c-0.07 0-0.086 0.266-0.016 0.284 0.006 0.001 0.014 0.002 0.014 0.002 0.701 0.121 1.138 0.162 1.564 0.427 0.435 0.27 0.399 0.487 0.399 1.102l-0.004 18.947c0 0.615 0.036 0.835-0.399 1.104-0.426 0.265-0.862 0.309-1.564 0.427 0 0-0.008 0.002-0.014 0.004-0.069 0.017-0.056 0.282 0.014 0.282h15.328c6.465 0 9.186-2.566 9.186-6.569 0-2.959-1.378-4.767-4.106-5.447-0.046-0.013-0.049-0.073 0-0.088 1.738-0.542 3.336-1.8 3.336-4.881 0-4.176-2.822-5.594-8.979-5.594h-14.759zm35.562 0l-11.074 0.002c-0.066 0-0.059 0.254 0.006 0.282h0.014c0.472 0.048 0.731 0.017 1.285 0.287 0.065 0.03 0.218 0.133 0.279 0.183 0.35 0.295 0.567 0.57 0.996 1.207l7.809 11.561v7.24c0 0.616 0.036 0.834-0.399 1.104-0.427 0.265-0.863 0.307-1.564 0.427 0 0-0.009 0.001-0.014 0.002-0.07 0.018-0.056 0.282 0.014 0.282h12.019c0.07 0 0.086-0.264 0.016-0.282-0.006-0.001-0.014-0.002-0.014-0.002-0.701-0.12-1.138-0.162-1.564-0.427-0.436-0.27-0.397-0.488-0.397-1.102v-7.191l7.817-11.612c0.427-0.637 0.702-0.968 1.052-1.265 0.06-0.049 0.203-0.143 0.293-0.199 0.323-0.163 0.447-0.202 0.844-0.213h0.012c0.074-0.01 0.095-0.282 0.014-0.282l-10.545-0.002c-0.088 0-0.069 0.277 0.004 0.284 0.006 0.001 0.013 0.004 0.013 0.004 0.513 0 1.142 0.003 1.039 0.738-0.057 0.712-3.099 5.108-4.181 6.777-0.155 0.239-0.275 0.487-0.327 0.785-0.04-0.293-0.225-0.596-0.351-0.781-1.508-2.249-4.089-5.889-4.164-6.783-0.063-0.763 0.53-0.74 1.041-0.74h0.012c0.073-0.008 0.1-0.284 0.015-0.284zm18.481 0c-0.079 0-0.064 0.269 0.004 0.284 0.005 0 0.011 0.002 0.011 0.002 0.392 0.022 0.657 0.046 0.899 0.25 0.355 0.302 0.412 0.664 0.412 1.279v11.193c0 5.396 2.953 9.979 11.915 9.979 8.96 0 11.91-4.583 11.91-9.979v-11.193c0-0.615-0.03-0.832 0.4-1.102 0.43-0.263 0.86-0.307 1.57-0.427 0 0 0-0.001 0.01-0.002 0.07-0.018 0.06-0.284-0.01-0.284h-11.31c-0.07 0-0.09 0.266-0.02 0.284l0.02 0.002c0.71 0.09 1.04 0.163 1.47 0.425 0.44 0.272 0.4 0.49 0.4 1.104v11.387c0 2.597-1.49 4.591-4.44 4.591s-4.44-1.994-4.44-4.591v-11.385c0-0.615-0.04-0.832 0.4-1.104 0.42-0.263 0.78-0.33 1.47-0.427 0 0 0.01-0.001 0.01-0.002 0.07-0.018 0.06-0.284-0.01-0.284h-10.671zm-44.934 4.217s0.275 0.045 0.541 0.045h2.967c2.257 0 3.584 0.347 3.584 2.402 0 1.333-0.824 2.522-3.492 2.522h-3.059c-0.266 0-0.531 0.035-0.531 0.035s0.033-0.257 0.033-0.531v-3.934c0-0.305-0.043-0.539-0.043-0.539zm0.008 8.42s0.266 0.037 0.531 0.037h2.508c2.001 0 4.451-0.001 4.451 2.772 0 2.05-1.753 2.771-4.113 2.771h-2.846c-0.269 0-0.525 0.037-0.525 0.037s0.029-0.271 0.029-0.531v-4.553c0-0.306-0.035-0.533-0.035-0.533zm22.092 26.521c-0.045 0.01-0.089 0.03-0.104 0.07l-2.451 5.35c-0.56 1.24-0.944 1.64-1.682 1.7-0.043 0-0.088 0.3 0 0.28 0.488-0.06 0.59-0.06 1.225-0.06 0.472 0 0.929 0.02 1.269 0.06 0.089 0.03 0.089-0.28 0.014-0.28-0.471-0.04-0.752-0.04-0.752-0.29 0-0.3 0.162-0.73 0.444-1.38l0.337-0.78h2.393l0.266 0.78c0.191 0.56 0.384 1.05 0.384 1.39 0 0.3-0.31 0.22-0.812 0.28-0.044 0-0.089 0.31 0 0.28 0.472-0.06 1.269-0.06 1.904-0.06 0.486 0 1.121 0.02 1.475 0.06 0.089 0.03 0.06-0.28 0.015-0.28-1.062-0.09-1.269-0.63-1.697-1.7l-2.125-5.35c-0.015-0.05-0.059-0.07-0.103-0.07zm18.922 0c-0.045 0.01-0.089 0.03-0.104 0.07l-2.449 5.35c-0.56 1.24-0.946 1.64-1.684 1.7-0.044 0-0.089 0.3 0 0.28 0.488-0.06 0.592-0.06 1.227-0.06 0.472 0 0.929 0.02 1.267 0.06 0.089 0.03 0.09-0.28 0.018-0.28-0.473-0.04-0.754-0.04-0.754-0.29 0-0.3 0.161-0.73 0.441-1.38l0.34-0.78h2.393l0.266 0.78c0.191 0.56 0.382 1.05 0.382 1.39 0 0.3-0.31 0.22-0.812 0.28-0.044 0-0.089 0.31 0 0.28 0.472-0.06 1.27-0.06 1.904-0.06 0.488 0 1.123 0.02 1.477 0.06 0.088 0.03 0.06-0.28 0.015-0.28-1.062-0.09-1.269-0.63-1.697-1.7l-2.127-5.35c-0.015-0.05-0.059-0.07-0.103-0.07zm-27.291 0.11c-0.074-0.02-0.044 0.29 0 0.29 0.856 0.09 1.017 0.31 1.017 1.7v1.4h-3.955v-1.4c0-1.31 0.116-1.62 1.002-1.7 0.044 0 0.075-0.3-0.014-0.27-0.353 0.04-1.004 0.07-1.476 0.07-0.634 0-1.461 0-1.918-0.07-0.089-0.03-0.06 0.27-0.016 0.27 1.123 0.12 1.227 0.3 1.227 1.7v3.34c0 1.4-0.104 1.55-1.227 1.68-0.044 0-0.087 0.31 0 0.28 0.473-0.06 1.3-0.06 1.934-0.06 0.472 0 1.123 0.02 1.476 0.06 0.089 0.03 0.058-0.28 0.014-0.28-0.886-0.07-1.002-0.38-1.002-1.68v-1.51h3.955v1.51c0 1.37-0.161 1.58-1.017 1.68-0.044 0-0.074 0.3 0 0.28 0.472-0.06 1.091-0.06 1.726-0.06 0.486 0 1.342 0.02 1.682 0.06 0.088 0.03 0.089-0.28 0.015-0.28-1.151-0.1-1.211-0.35-1.211-1.68v-3.34c0-1.33 0.06-1.61 1.211-1.7 0.074 0 0.073-0.3-0.015-0.27-0.34 0.04-1.196 0.07-1.682 0.07-0.635 0-1.269-0.02-1.726-0.09zm23.673 0c-0.442 0.07-0.531 0.09-1.136 0.09-0.443 0-0.989-0.03-1.299-0.08-0.089-0.03-0.074 0.28 0 0.28 0.516 0.05 0.722 0.17 0.722 0.45s-0.071 0.53-0.322 1.19l-1.402 3.59-1.285-3.54c-0.235-0.64-0.266-0.95-0.266-1.21 0-0.31 0.25-0.43 0.914-0.48 0.044 0 0.06-0.31-0.029-0.28-0.413 0.08-1.462 0.08-2.067 0.08-0.427 0-1.061-0.03-1.386-0.08-0.089-0.03-0.074 0.28 0 0.28 0.753 0.08 1.091 0.58 1.593 1.72l0.059 0.13-1.475 3.4-1.521-3.56c-0.163-0.39-0.324-1.04-0.324-1.26 0-0.29 0.309-0.38 0.81-0.43 0.03 0 0.045-0.31-0.013-0.28-0.429 0.08-1.388 0.08-1.979 0.08-0.442 0-1.062-0.03-1.4-0.08-0.089-0.03-0.046 0.28-0.016 0.28 0.796 0.08 1.151 0.49 1.668 1.72l2.258 5.34c0.044 0.1 0.177 0.07 0.207 0.02l2.008-4.58 1.726 4.56c0.029 0.1 0.177 0.07 0.207 0.02l2.229-5.36c0.472-1.15 0.945-1.67 1.535-1.72 0.03 0 0.058-0.29-0.016-0.29zm8.829 0.02c-0.119-0.02-0.059 0.27-0.03 0.27 0.975 0.11 1.123 0.3 1.123 1.7v3.34c0 1.39-0.148 1.58-1.123 1.68-0.029 0-0.102 0.31 0.016 0.28 0.472-0.06 1.179-0.06 1.844-0.06 0.442 0 1.212 0.02 1.55 0.06 0.119 0.02 0.058-0.28 0.03-0.28-1.019-0.09-1.121-0.37-1.121-1.68v-3.34c0-1.31 0.102-1.62 1.121-1.7 0.028 0 0.089-0.29-0.03-0.27-0.338 0.04-1.108 0.07-1.55 0.07-0.665 0-1.373 0-1.83-0.07zm5.392 0c-0.12-0.02-0.06 0.27-0.03 0.27 0.97 0.11 1.12 0.3 1.12 1.7v3.34c0 1.39-0.15 1.58-1.12 1.68-0.03 0-0.11 0.31 0.01 0.28 0.47-0.06 1.18-0.06 1.85-0.06 0.44 0 1.21 0.02 1.55 0.06 0.11 0.02 0.06-0.28 0.03-0.28-1.02-0.09-1.13-0.37-1.13-1.68v-3.34c0-1.31 0.11-1.62 1.13-1.7 0.03 0 0.08-0.29-0.03-0.27-0.34 0.04-1.11 0.07-1.55 0.07-0.67 0-1.38 0-1.83-0.07zm-29.91 1.62l0.916 2.48h-2.053l1.137-2.48zm18.924 0l0.914 2.48h-2.051l1.137-2.48z" transform="matrix(.8 0 0 -.8 158.24 435.36)" fill="#9e1b34"/></g></g></svg>
